<?xml version="1.0" encoding="utf-8"?>
<!-- Generator: Adobe Illustrator 21.0.2, SVG Export Plug-In . SVG Version: 6.00 Build 0)  -->
<svg version="1.1" id="Capa_1" xmlns="http://www.w3.org/2000/svg" xmlns:xlink="http://www.w3.org/1999/xlink" x="0px" y="0px"
	 viewBox="0 0 30 30" style="enable-background:new 0 0 30 30;" xml:space="preserve">
<style type="text/css">
	.st0{fill:none;stroke:#B4A373;stroke-miterlimit:10;}
	.st1{display:none;}
	.st2{display:inline;fill:#B4A373;}
	.st3{fill:#B4A373;}
</style>
<circle class="st0" cx="15.1" cy="14.6" r="13.6"/>
<g transform="translate(0,-952.36218)" class="st1">
	<path class="st2" d="M15,956.4c-2.4,0-4.3,1.9-4.3,4.3s1.9,4.3,4.3,4.3s4.3-1.9,4.3-4.3C19.3,958.3,17.4,956.4,15,956.4z M15,957.6
		c1.7,0,3,1.4,3,3c0,1.7-1.4,3-3,3s-3-1.4-3-3C12,959,13.3,957.6,15,957.6z M15,966.2c-4.6,0-8.4,3.4-8.9,7.9c0,0.3,0.2,0.7,0.5,0.7
		c0,0,0.1,0,0.1,0h16.7c0.3,0,0.6-0.3,0.6-0.6c0,0,0-0.1,0-0.1C23.4,969.6,19.6,966.2,15,966.2z M15,967.4c3.8,0,6.8,2.6,7.6,6.1
		H7.4C8.2,970,11.3,967.4,15,967.4z"/>
</g>
<path class="st3" d="M22.4,11.5h-2.2V9.1C20.2,6.3,17.9,4,15,4S9.9,6.3,9.9,9.1v2.4H7.7c-0.4,0-0.8,0.4-0.8,0.8l0,0v10.2
	c0,0.4,0.4,0.8,0.8,0.8h14.7c0.4,0,0.8-0.4,0.8-0.8V12.3C23.2,11.9,22.8,11.5,22.4,11.5L22.4,11.5z M11.2,9.1c0-2.1,1.7-3.8,3.8-3.8
	s3.8,1.7,3.8,3.8l0,0v2.4h-7.7V9.1z M21.8,22H8.2v-9.2h13.7V22z"/>
</svg>
