<?xml version="1.0" encoding="utf-8"?>
<!-- Generator: Adobe Illustrator 21.0.2, SVG Export Plug-In . SVG Version: 6.00 Build 0)  -->
<svg version="1.1" id="Capa_1" xmlns="http://www.w3.org/2000/svg" xmlns:xlink="http://www.w3.org/1999/xlink" x="0px" y="0px"
	 viewBox="0 0 77 77" style="enable-background:new 0 0 77 77;" xml:space="preserve">
<style type="text/css">
	.st0{fill:#FFFFFF;stroke:#FFFFFF;stroke-miterlimit:10;}
	.st1{display:none;fill:none;stroke:#FEDC00;stroke-width:2;stroke-miterlimit:10;}
	.st2{display:none;}
	.st3{display:inline;}
	.st4{fill:#FEDC00;}
	.st5{fill:#333333;}
	.st6{display:inline;fill:#FEDC00;}
	.st7{fill:none;}
	.st8{fill:none;stroke:#FEDC00;stroke-width:2;stroke-miterlimit:10;}
</style>
<circle class="st0" cx="39.5" cy="38.5" r="36"/>
<circle class="st1" cx="38.3" cy="38.2" r="36.7"/>
<g class="st2">
	<g class="st3">
		<path class="st4" d="M36.9,25l-4.4-1.4h-1.4c0,1.6-1.3,3-3,3c-1.6,0-3-1.3-3-3h-1.4L19.4,25v5.9l3.7-1.2v12.9h10.3v-13l3.7,1.2V25
			H36.9z"/>
		<path class="st5" d="M59,19.8H17.8c-1.2,0-2.2,1-2.2,2.2v27.3c0,1.2,1,2.2,2.2,2.2h12.6v3.7h-3.7v1.4h23.6v-1.4h-3.7v-3.7h12.6
			c1.2,0,2.2-1,2.2-2.2V22.1C61.2,20.8,60.2,19.8,59,19.8z M17.8,21.3h41.3c0.4,0,0.8,0.3,0.8,0.8v22.8H17V22.1
			C17,21.6,17.3,21.3,17.8,21.3z M45,55.2H31.8v-3.7H45C45,51.5,45,55.2,45,55.2z M59,50.1H17.8c-0.4,0-0.8-0.3-0.8-0.8v-3h42.7v3
			C59.8,49.7,59.5,50.1,59,50.1z"/>
		<rect x="22.9" y="30.9" class="st5" width="10.3" height="1.4"/>
		<rect x="22.9" y="33.9" class="st5" width="10.3" height="1.4"/>
		<rect x="40.6" y="23.5" class="st5" width="17.7" height="1.4"/>
		<rect x="40.6" y="27.2" class="st5" width="17.7" height="1.4"/>
		<rect x="40.6" y="30.9" class="st5" width="14.8" height="1.4"/>
		<rect x="56.8" y="30.9" class="st5" width="1.4" height="1.4"/>
		<rect x="40.6" y="34.2" class="st5" width="17.7" height="1.4"/>
		<rect x="40.6" y="37.9" class="st5" width="17.7" height="1.4"/>
		<rect x="40.6" y="41.6" class="st5" width="14.8" height="1.4"/>
		<rect x="56.8" y="41.6" class="st5" width="1.4" height="1.4"/>
	</g>
</g>
<circle class="st1" cx="38" cy="38.7" r="36.7"/>
<g class="st2">
	<rect x="21" y="26" class="st6" width="23.2" height="30.2"/>
	<g class="st3">
		<g>
			<path class="st5" d="M32.5,35.8h-5.3l-0.2,1.2h-3.1v0.7h2.9l-0.1,0.7h-3.1v0.7h3l-0.1,0.7h-3.1v0.7h3.1l-0.1,0.7h-3.3v0.7h3.1
				l-0.7,3.4h2c0.2,0.9,1,1.6,1.9,1.6s1.7-0.7,1.9-1.6H35h0.3H36c0.2,0.9,1,1.6,1.9,1.6c1,0,1.7-0.7,1.9-1.6h1.5l1-5.3h-1.9
				c0-0.6-0.1-1.1-0.5-1.6c-0.5-0.6-1.1-0.9-1.8-0.9h-1.3l0.2-1.2h-3.8 M29.3,45.9c-0.7,0-1.2-0.6-1.2-1.2c0-0.7,0.6-1.2,1.2-1.2
				c0.7,0,1.2,0.6,1.2,1.2S30,45.9,29.3,45.9z M34.7,44.3h-3.5c-0.2-0.9-1-1.6-1.9-1.6s-1.7,0.7-1.9,1.6h-1.2l0.6-2.9H28v-0.7h-1.1
				l0.1-0.7h1.4v-0.7h-1.2l0.1-0.7h1.4v-0.7h-1.3l0.1-0.7h1.5v-0.7h-1.4l0.1-0.7h8.5L34.7,44.3z M37.8,45.9c-0.7,0-1.2-0.6-1.2-1.2
				c0-0.7,0.6-1.2,1.2-1.2S39,44,39,44.7C39,45.4,38.5,45.9,37.8,45.9z M39.7,44.3c-0.2-0.9-1-1.6-1.9-1.6s-1.7,0.7-1.9,1.6h-0.6
				l1.2-6.7H38c0.6,0,1,0.3,1.3,0.7c0.3,0.4,0.5,1,0.3,1.4l-0.1,0.4h1.9l-0.9,4.1L39.7,44.3L39.7,44.3z"/>
		</g>
	</g>
	<g class="st3">
		<polygon class="st7" points="21.9,55.4 44,55.4 44,43.6 44,39.5 44,26.3 39.1,26.3 26.8,26.3 21.9,26.3 		"/>
		<path class="st7" d="M26.8,24.9h12.4c0.4,0,0.7-0.3,0.7-0.7v-2.1c0-0.4-0.3-0.7-0.7-0.7h-3.4v-2.1c0-0.4-0.3-0.7-0.7-0.7h-4.2
			c-0.4,0-0.7,0.3-0.7,0.7v2.1h-3.4c-0.4,0-0.7,0.3-0.7,0.7v2.1C26.1,24.6,26.4,24.9,26.8,24.9z"/>
		<path class="st7" d="M46.8,22.9h-5.5v1.4c0,0.3-0.1,0.5-0.1,0.7h4.3v18.6v13.3H20.6V25h4.3c-0.1-0.2-0.1-0.5-0.1-0.7v-1.4h-5.6
			c-0.4,0-0.7,0.3-0.7,0.7v34.6c0,0.4,0.3,0.7,0.7,0.7h27.6c0.4,0,0.7-0.3,0.7-0.7V43.5V23.5C47.5,23.2,47.2,22.9,46.8,22.9z"/>
		<path class="st5" d="M48.9,39.5V23.5c0-1.1-1-2.1-2.1-2.1h-5.6c-0.3-0.8-1-1.4-1.9-1.4h-2.1v-0.7c0-1.1-1-2.1-2.1-2.1h-4.2
			c-1.1,0-2.1,1-2.1,2.1V20h-2c-0.9,0-1.6,0.6-1.9,1.4h-5.7c-1.1,0-2.1,1-2.1,2.1v34.6c0,1.1,1,2.1,2.1,2.1h27.6
			c1.1,0,2.1-1,2.1-2.1V43.6V39.5z M26.1,22.1c0-0.4,0.3-0.7,0.7-0.7h3.4v-2.1c0-0.4,0.3-0.7,0.7-0.7H35c0.4,0,0.7,0.3,0.7,0.7v2.1
			h3.4c0.4,0,0.7,0.3,0.7,0.7v2.1c0,0.4-0.3,0.7-0.7,0.7H26.8c-0.4,0-0.7-0.3-0.7-0.7V22.1z M26.8,26.3h12.4H44v13.2v4.2v11.7H21.9
			V26.3L26.8,26.3L26.8,26.3z M47.5,58.1c0,0.4-0.3,0.7-0.7,0.7H19.2c-0.4,0-0.7-0.3-0.7-0.7V23.5c0-0.4,0.3-0.7,0.7-0.7h5.5v1.4
			c0,0.3,0.1,0.5,0.1,0.7h-4.3v31.8h24.9V43.6V25h-4.3c0.1-0.2,0.1-0.5,0.1-0.7v-1.4h5.5c0.4,0,0.7,0.3,0.7,0.7"/>
	</g>
	<g class="st3">
		<g>
			<path d="M55.3,18.7H53c-0.4,0-0.6,0.3-0.6,0.6v3.5h-0.3c-0.4,0-0.6,0.3-0.6,0.6v27.5c0,1.7,0.4,3.4,1,5l1,2.1
				c0,0.1,0.1,0.1,0.1,0.2v1.1c0,0.4,0.3,0.6,0.6,0.6c0.2,0,0.3-0.1,0.4-0.2c0.1-0.1,0.2-0.3,0.2-0.4v-1.1c0,0,0.1-0.1,0.1-0.2
				l1-2.1c0.7-1.5,1-3.2,1-5V26.7c0.5,0.3,0.9,1,0.9,2.1V36c0,0.4,0.3,0.6,0.6,0.6c0.2,0,0.3-0.1,0.4-0.2c0.1-0.1,0.2-0.3,0.2-0.4
				v-7.2c0-0.9-0.2-1.7-0.6-2.3c-0.4-0.6-0.9-1-1.4-1v-2.1c0-0.4-0.3-0.6-0.6-0.6H56v-3.5C55.9,19,55.6,18.7,55.3,18.7z M55.6,50.9
				c0,1.5-0.3,3.1-1,4.5l-0.6,1.2l-0.6-1.2c-0.7-1.4-1-3-1-4.5v-1h3.1L55.6,50.9L55.6,50.9z M55.6,48.8h-3.1V24h3.1V48.8z
				 M54.7,22.9h-1.1v-3h1.1V22.9z"/>
		</g>
	</g>
</g>
<ellipse class="st1" cx="39" cy="38.4" rx="36" ry="36.4"/>
<g class="st2">
	<g class="st3">
		<path class="st4" d="M40.7,36.7h-0.2c-1.5,1.2-3.4,1.9-5.4,1.9c-2,0-3.9-0.7-5.4-1.9h-0.2h-6.3v10.2h23.8V36.7H40.7L40.7,36.7z"/>
		<path class="st5" d="M57,49.4h-0.7v-7h-2.6L53.2,36h-5.6v-5.8h-3.1c0-0.2,0-0.4,0-0.7c0-2.6-1-4.9-2.7-6.6l0.5-0.5l1.1,1.2
			l0.9-0.9l-3.1-3.2l-0.9,0.9l1.1,1.2l-0.5,0.6c-1.4-1.2-3.2-1.9-5.2-2v-0.7h1.9v-1.2h-5v1.2h1.9v0.7c-2,0.1-3.8,0.9-5.2,2l-0.5-0.5
			l1.1-1.2l-0.9-0.9l-3.1,3.2l0.9,0.9l1.1-1.2l0.5,0.5c-1.6,1.7-2.7,4-2.7,6.6c0,0.2,0,0.4,0,0.7h-3.1v19H22c-1,0-1.9,0.9-1.9,1.9
			s0.9,1.9,1.9,1.9h0.7h1.2h1.9c0,2.5,2,4.4,4.4,4.4c2.5,0,4.4-2,4.4-4.4h11.9c0,2.5,2,4.4,4.4,4.4c2.5,0,4.4-2,4.4-4.4h1.2H57
			c1,0,1.9-0.9,1.9-1.9C58.9,50.2,58.1,49.4,57,49.4z M52.1,37.3l0.5,5.1h-4.9v-5.1H52.1z M35.1,21.5c4.5,0,8.2,3.7,8.2,8.3
			c0,4.5-3.7,8.3-8.2,8.3S27,34.2,27,29.7S30.6,21.5,35.1,21.5z M22.5,51.9H22c-0.4,0-0.7-0.3-0.7-0.7c0-0.4,0.3-0.7,0.7-0.7h0.7
			L22.5,51.9L22.5,51.9z M30.1,56.4c-1.7,0-3.1-1.4-3.1-3.2s1.4-3.2,3.1-3.2c1.7,0,3.1,1.4,3.1,3.2S31.8,56.4,30.1,56.4z M34.3,51.9
			c-0.6-1.8-2.2-3.2-4.2-3.2s-3.7,1.3-4.2,3.2h-2.1v-2.5V31.6h2.1c0.9,4.3,4.6,7.6,9.2,7.6s8.3-3.3,9.2-7.6h2.1V36v6.3v1.2v8.3H34.3
			L34.3,51.9z M50.8,56.4c-1.7,0-3.1-1.4-3.1-3.2s1.4-3.2,3.1-3.2c1.7,0,3.1,1.4,3.1,3.2C53.9,54.9,52.5,56.4,50.8,56.4z M55.1,51.9
			H55c-0.6-1.8-2.2-3.2-4.2-3.2c-1.2,0-2.4,0.5-3.1,1.3v-6.4H54h1.2v5.8L55.1,51.9L55.1,51.9z M57,51.9h-0.7v-1.2H57
			c0.4,0,0.7,0.3,0.7,0.7C57.7,51.7,57.4,51.9,57,51.9z"/>
		<path class="st5" d="M30.1,51.3c-1,0-1.9,0.9-1.9,1.9c0,1.1,0.9,1.9,1.9,1.9c1,0,1.9-0.9,1.9-1.9C32,52.2,31.2,51.3,30.1,51.3z
			 M30.1,53.8c-0.4,0-0.7-0.3-0.7-0.7c0-0.4,0.3-0.7,0.7-0.7c0.4,0,0.7,0.3,0.7,0.7C30.7,53.5,30.4,53.8,30.1,53.8z"/>
		<path class="st5" d="M50.8,51.3c-1,0-1.9,0.9-1.9,1.9c0,1.1,0.9,1.9,1.9,1.9s1.9-0.9,1.9-1.9C52.7,52.2,51.8,51.3,50.8,51.3z
			 M50.8,53.8c-0.4,0-0.7-0.3-0.7-0.7c0-0.4,0.3-0.7,0.7-0.7c0.4,0,0.7,0.3,0.7,0.7C51.4,53.5,51.2,53.8,50.8,53.8z"/>
		<path class="st5" d="M33.2,29.7c0,1.1,0.9,1.9,1.9,1.9s1.9-0.9,1.9-1.9c0-1.1-0.9-1.9-1.9-1.9c-0.1,0-0.2,0-0.3,0l-3.6-4.2
			l-0.9,0.9l3.4,4C33.4,28.8,33.2,29.2,33.2,29.7z M35.7,29.7c0,0.4-0.3,0.7-0.7,0.7c-0.4,0-0.7-0.3-0.7-0.7c0-0.4,0.3-0.7,0.7-0.7
			C35.4,29,35.7,29.3,35.7,29.7z"/>
		<path class="st5" d="M34.6,36.6l0.1-1.2c-2.9-0.3-5.2-2.8-5.2-5.7c0-1.4,0.5-2.8,1.4-3.7l-0.9-0.9c-1.1,1.2-1.7,3-1.7,4.6
			C28.2,33.4,31,36.3,34.6,36.6z"/>
	</g>
</g>
<circle class="st1" cx="38.8" cy="38.6" r="36.2"/>
<g class="st2">
	<g class="st3">
		<path class="st5" d="M56.6,26.9h-3v-2.4h2.4v-3.8H21.3v3.8h2.4v2.4h-2.9c-0.8,0-1.3,0.6-1.3,1.3v1.7c0,0.8,0.6,1.3,1.3,1.3h2.9
			l-2.3,5.2c-0.4,0.9-0.3,2,0.3,2.8c0.5,0.8,1.2,1.1,2.1,1.3v11.9h-2.4c-0.8,0-1.3,0.6-1.3,1.3v1.7c0,0.8,0.6,1.3,1.3,1.3h9.8h14.9
			H56c0.8,0,1.3-0.6,1.3-1.3v-1.7c0-0.8-0.6-1.3-1.3-1.3h-2.4V40.5c0.8-0.1,1.6-0.6,2.1-1.3c0.6-0.8,0.7-1.9,0.3-2.8l-2.3-5.2h2.9
			c0.8,0,1.3-0.6,1.3-1.3v-1.7C58,27.4,57.4,26.9,56.6,26.9z M22.6,21.9h32.3v1.2H22.6V21.9z M27.7,38.6c-0.3-0.4-0.5-0.8-0.4-1.3
			l0.8-5.6h3.1l-0.4,5.8c-0.1,0.9-0.8,1.6-1.7,1.6h-0.1C28.5,39.3,28,39,27.7,38.6z M22.8,38.5c-0.3-0.5-0.4-1.1-0.2-1.6l2.2-5.1h2
			L26,37c0,0,0,0,0,0.1l-0.1,0.6c-0.1,0.8-0.8,1.5-1.7,1.5C23.7,39.3,23.1,39,22.8,38.5z M25.1,40.4c0.7-0.2,1.2-0.6,1.6-1
			c0,0.1,0.1,0.1,0.1,0.2c0.1,0.1,0.1,0.1,0.2,0.2v12.7h-1.9L25.1,40.4L25.1,40.4z M21.3,55.3v-1.7c0-0.1,0.1-0.1,0.1-0.1h5.5v1.9
			L21.3,55.3C21.4,55.4,21.3,55.4,21.3,55.3z M32.5,45.5h5.6v4.3h-1.2v1.2h1.2v4.3h-5.6V45.5z M39.3,55.4v-4.3h1.2v-1.2h-1.2v-4.3
			h2.4v-1.2h-9.3v-1.9h12.4v1.9h-1.2v1.2h1.2v10L39.3,55.4L39.3,55.4z M31.3,41.1v14.3h-3.1V40.3c0.3,0.1,0.6,0.1,0.8,0.1h0.1
			c0.9,0,1.8-0.5,2.4-1.1c0.1,0.1,0.1,0.2,0.2,0.2c0.6,0.6,1.3,0.9,2.2,0.9h0.1c0.9,0,1.8-0.5,2.4-1.1c0.6,0.7,1.4,1.1,2.4,1.1h0.3
			c0.9,0,1.8-0.5,2.4-1.1c0.6,0.7,1.4,1.1,2.4,1.1h0.1c0.8,0,1.6-0.4,2.2-0.9c0.1-0.1,0.1-0.1,0.2-0.2c0.6,0.8,1.4,1.1,2.4,1.1h0.1
			c0.3,0,0.6-0.1,0.8-0.1v15.1h-3.1V41.1H31.3z M32.1,37.4l0.4-5.6h3.1v5.7c0,0.9-0.8,1.7-1.7,1.7h-0.1c-0.5,0-0.9-0.2-1.2-0.6
			C32.2,38.4,32.1,37.9,32.1,37.4z M36.9,37.5v-5.7h3.8v5.7c0,0.9-0.8,1.7-1.7,1.7h-0.3C37.6,39.3,36.9,38.5,36.9,37.5z M41.9,37.5
			v-5.7H45l0.4,5.6c0,0.5-0.1,0.9-0.5,1.3s-0.8,0.6-1.2,0.6h-0.1C42.6,39.3,41.9,38.5,41.9,37.5z M49.8,38.6
			c-0.3,0.4-0.8,0.6-1.3,0.6h-0.1c-0.9,0-1.7-0.7-1.7-1.6l-0.4-5.8h3.1l0.8,5.5C50.2,37.8,50,38.3,49.8,38.6z M56.1,53.6v1.7
			c0,0.1-0.1,0.1-0.1,0.1h-5.5v-1.9L56.1,53.6C56.1,53.5,56.1,53.6,56.1,53.6z M50.5,52.3V39.6c0.1-0.1,0.1-0.1,0.2-0.2
			c0-0.1,0.1-0.1,0.1-0.2c0.4,0.5,0.9,0.8,1.6,1v12L50.5,52.3L50.5,52.3z M54.6,38.5c-0.3,0.5-0.8,0.8-1.4,0.8
			c-0.8,0-1.6-0.7-1.7-1.5L51.4,37l0,0l-0.8-5.3h2l2.2,5.1C54.9,37.4,54.9,38,54.6,38.5z M56.7,29.9C56.7,30,56.6,30,56.7,29.9
			L50,30v0.7H27.6V30h-6.8c-0.1,0-0.1-0.1-0.1-0.1v-1.7c0-0.1,0.1-0.1,0.1-0.1h6.7v-1.2h-2.4v-2.4h27.3v2.4H50v1.2h6.7
			c0.1,0,0.1,0.1,0.1,0.1V29.9z"/>
		<path class="st4" d="M50.8,30.9H27.2v-7.6h23.6V30.9z"/>
	</g>
</g>
<g class="st2">
	<path class="st3" d="M36,27.9h-2c0,0.2,0.1,0.4,0.2,0.5s0.3,0.2,0.6,0.2c0.1,0,0.3,0,0.6-0.1l0.4,0.4c-0.2,0.2-0.6,0.3-1,0.3
		c-0.4,0-0.8-0.1-1-0.4c-0.3-0.3-0.4-0.6-0.4-1c0-0.5,0.1-0.8,0.4-1c0.3-0.3,0.6-0.4,0.9-0.4s0.8,0.1,0.9,0.4
		c0.3,0.3,0.4,0.6,0.4,0.9C36.1,27.6,36.1,27.8,36,27.9z M34,27.4h1.3c0-0.4-0.3-0.6-0.7-0.6C34.4,26.9,34.1,27.1,34,27.4z"/>
	<path class="st3" d="M40.2,27.9h-2c0,0.2,0.1,0.4,0.2,0.5s0.3,0.2,0.6,0.2c0.1,0,0.3,0,0.6-0.1l0.4,0.4c-0.2,0.2-0.6,0.3-1,0.3
		c-0.4,0-0.8-0.1-1-0.4c-0.3-0.3-0.4-0.6-0.4-1c0-0.5,0.1-0.8,0.4-1c0.3-0.3,0.6-0.4,0.9-0.4s0.8,0.1,0.9,0.4
		c0.3,0.3,0.4,0.6,0.4,0.9C40.2,27.6,40.2,27.8,40.2,27.9z M38.2,27.4h1.3c0-0.4-0.3-0.6-0.7-0.6C38.5,26.9,38.3,27.1,38.2,27.4z"/>
	<path class="st3" d="M36.5,25.4l0.7-0.4v3.3c0,0.5,0.1,0.6,0.3,0.6c-0.1,0.2-0.3,0.3-0.5,0.3c-0.1,0-0.5-0.2-0.5-0.6V25.4z"/>
	<path class="st3" d="M42.3,29.1l-0.8-1.2l-0.3,0.3v0.9h-0.7v-3.8l0.7-0.4v2.4l0.9-1h0.8l-0.9,1l1.1,1.7H42.3z"/>
	<path class="st3" d="M43.7,27H43l0.4-0.6h0.3v-0.6l0.7-0.3v0.8H45V27h-0.7v1.1c0,0.2,0,0.4,0.1,0.4s0.2,0.1,0.3,0.1
		c0.1,0,0.3,0,0.5-0.1V29c-0.2,0.1-0.4,0.1-0.7,0.1c-0.3,0-0.5-0.1-0.7-0.2c-0.2-0.2-0.2-0.4-0.2-0.7L43.7,27L43.7,27z"/>
	<path class="st3" d="M47.2,27.1C47.1,27,46.9,27,46.8,27s-0.3,0.1-0.4,0.2s-0.2,0.3-0.2,0.5v1.5h-0.7v-2.7h0.7v0.3
		c0.2-0.2,0.4-0.3,0.8-0.3c0.2,0,0.3,0,0.4,0.1L47.2,27.1z"/>
	<path class="st3" d="M49,28.9c-0.1,0.1-0.2,0.2-0.3,0.3c-0.2,0.1-0.3,0.1-0.5,0.1c-0.3,0-0.6-0.1-0.7-0.2c-0.2-0.2-0.3-0.4-0.3-0.7
		c0-0.3,0.1-0.6,0.4-0.8c0.3-0.2,0.6-0.3,1-0.3c0.1,0,0.2,0,0.3,0c0-0.3-0.2-0.5-0.7-0.5c-0.3,0-0.5,0-0.6,0.1v-0.5
		c0.2-0.1,0.4-0.2,0.7-0.2c0.4,0,0.8,0.1,0.9,0.3c0.2,0.2,0.3,0.6,0.3,1v0.6c0,0.4,0,0.6,0.2,0.7C49.8,29,49.8,29,49.7,29
		s-0.1,0-0.2,0s-0.2,0-0.3-0.1C49,29,49,29,49,28.9z M48.9,27.8c-0.1,0-0.2,0-0.3,0c-0.5,0-0.8,0.2-0.8,0.5c0,0.3,0.2,0.4,0.5,0.4
		c0.4,0,0.6-0.2,0.6-0.6L48.9,27.8L48.9,27.8z"/>
	<g class="st3">
		<path d="M30.6,27.1c0,0-1-0.5-1.5,0.8c0,0-0.3,0.9,0.7,1.3l0.3-0.7c0,0-0.6-0.2-0.5-0.8C29.8,26.9,30.6,27.1,30.6,27.1z"/>
		<path d="M31.3,28.4v0.5c0,0-0.5,0.3-0.9-0.1c-0.4-0.4-0.2-0.8-0.2-0.8S30.6,28.9,31.3,28.4z"/>
		<polygon points="31.3,28.4 31.3,28.9 31.8,29 31.8,28.5 		"/>
		<path d="M30.6,27.1c0,0,0.1,1.1,1.4,0.9c0,0,0.9-0.3,0.8-1.2L32,26.9c0,0,0.1,0.6-0.6,0.8C30.7,27.8,30.6,27.1,30.6,27.1z"/>
		<path d="M31.4,25.8l0.4-0.2c0,0,0.6,0.3,0.4,0.8C32,27,31.5,27,31.5,27S32.2,26.2,31.4,25.8z"/>
		<polygon points="31.4,25.8 31.8,25.6 31.6,25.1 31.2,25.3 		"/>
		<path d="M30.6,27.1c0,0,0.9-0.7,0.1-1.7c0,0-0.7-0.8-1.4-0.1l0.5,0.6c0,0,0.5-0.4,0.9,0.1C31.1,26.5,30.6,27.1,30.6,27.1z"/>
		<g>
			<path d="M29.1,27l-0.4-0.3c0,0,0-0.6,0.6-0.8c0.6-0.1,0.8,0.3,0.8,0.3S29.1,26.1,29.1,27z"/>
			<polygon points="29.1,27 28.7,26.8 28.3,27.2 28.7,27.4 			"/>
		</g>
	</g>
</g>
<circle class="st8" cx="38.4" cy="38.4" r="36.4"/>
<g>
	<g>
		<circle class="st4" cx="42.8" cy="35.1" r="5.8"/>
		<path class="st5" d="M38.4,48.2c-1.6,0-2.9,1.3-2.9,2.9s1.3,2.9,2.9,2.9s2.9-1.3,2.9-2.9S40.1,48.2,38.4,48.2z M38.4,52.6
			c-0.8,0-1.4-0.7-1.4-1.4c0-0.8,0.7-1.4,1.4-1.4s1.4,0.7,1.4,1.4C39.9,51.9,39.2,52.6,38.4,52.6z"/>
		<path class="st5" d="M59.9,41.5c-0.7-0.5-1.5-0.6-2.3-0.3h-0.1l-7.9-19.3L29.9,29l-4.1-9.8h-7.8c-1.2,0-2.2,0.9-2.2,2.2
			c0,1.2,0.9,2.2,2.2,2.2h4.6l10.2,24c-0.7,1-1,2.3-1,3.6c0,3.6,2.9,6.5,6.5,6.5c3.6,0,6.5-2.9,6.5-6.5c0-0.1,0-0.2,0-0.2l14.4-5.2
			c0.9-0.4,1.6-1.2,1.6-2.3C61,42.6,60.6,41.9,59.9,41.5z M40.3,26.8l2.3,5l-2.3,0.9L38,27.7L40.3,26.8z M36.7,28.1l2.9,6.5l5-2
			l-2.8-6.3l7.2-2.6l7.3,18l-13.1,4.9c-1.2-1.2-2.8-2-4.7-2c-0.7,0-1.3,0.1-1.9,0.3l-6.1-14.6L36.7,28.1z M18.1,22.1
			c-0.4,0-0.8-0.3-0.8-0.8c0-0.4,0.3-0.8,0.8-0.8h6.8l10.3,24.8c-0.5,0.3-0.9,0.6-1.2,0.9L23.7,22L18.1,22.1L18.1,22.1z M38.4,56.2
			c-2.8,0-5.1-2.3-5.1-5.1s2.3-5.1,5.1-5.1s5.1,2.3,5.1,5.1C43.6,54,41.3,56.2,38.4,56.2z M58.9,44.3l-14.1,5.1
			c-0.2-0.6-0.4-1.1-0.7-1.6l14.1-5.3c0.3-0.1,0.7-0.1,0.9,0.1c0.3,0.2,0.4,0.5,0.4,0.8C59.5,43.8,59.3,44.2,58.9,44.3z"/>
	</g>
</g>
</svg>
