<?xml version="1.0" encoding="utf-8"?>
<!-- Generator: Adobe Illustrator 21.0.2, SVG Export Plug-In . SVG Version: 6.00 Build 0)  -->
<svg version="1.1" id="Capa_1" xmlns="http://www.w3.org/2000/svg" xmlns:xlink="http://www.w3.org/1999/xlink" x="0px" y="0px"
	 viewBox="0 0 77 77" style="enable-background:new 0 0 77 77;" xml:space="preserve">
<style type="text/css">
	.st0{fill:#FFFFFF;stroke:#FFFFFF;stroke-miterlimit:10;}
	.st1{fill:none;stroke:#FEDC00;stroke-width:2;stroke-miterlimit:10;}
	.st2{fill:#FEDC00;}
	.st3{fill:#333333;}
</style>
<circle class="st0" cx="38" cy="38" r="36.5"/>
<circle class="st1" cx="38.3" cy="38.2" r="36.7"/>
<g>
	<g>
		<path class="st2" d="M36.9,25l-4.4-1.4h-1.4c0,1.6-1.3,3-3,3c-1.6,0-3-1.3-3-3h-1.4L19.4,25v5.9l3.7-1.2v12.9h10.3v-13l3.7,1.2V25
			H36.9z"/>
		<path class="st3" d="M59,19.8H17.8c-1.2,0-2.2,1-2.2,2.2v27.3c0,1.2,1,2.2,2.2,2.2h12.6v3.7h-3.7v1.4h23.6v-1.4h-3.7v-3.7h12.6
			c1.2,0,2.2-1,2.2-2.2V22.1C61.2,20.8,60.2,19.8,59,19.8z M17.8,21.3h41.3c0.4,0,0.8,0.3,0.8,0.8v22.8H17V22.1
			C17,21.6,17.3,21.3,17.8,21.3z M45,55.2H31.8v-3.7H45C45,51.5,45,55.2,45,55.2z M59,50.1H17.8c-0.4,0-0.8-0.3-0.8-0.8v-3h42.7v3
			C59.8,49.7,59.5,50.1,59,50.1z"/>
		<rect x="22.9" y="30.9" class="st3" width="10.3" height="1.4"/>
		<rect x="22.9" y="33.9" class="st3" width="10.3" height="1.4"/>
		<rect x="40.6" y="23.5" class="st3" width="17.7" height="1.4"/>
		<rect x="40.6" y="27.2" class="st3" width="17.7" height="1.4"/>
		<rect x="40.6" y="30.9" class="st3" width="14.8" height="1.4"/>
		<rect x="56.8" y="30.9" class="st3" width="1.4" height="1.4"/>
		<rect x="40.6" y="34.2" class="st3" width="17.7" height="1.4"/>
		<rect x="40.6" y="37.9" class="st3" width="17.7" height="1.4"/>
		<rect x="40.6" y="41.6" class="st3" width="14.8" height="1.4"/>
		<rect x="56.8" y="41.6" class="st3" width="1.4" height="1.4"/>
	</g>
</g>
</svg>
