<?xml version="1.0" encoding="utf-8"?>
<!-- Generator: Adobe Illustrator 16.0.0, SVG Export Plug-In . SVG Version: 6.00 Build 0)  -->
<!DOCTYPE svg PUBLIC "-//W3C//DTD SVG 1.1//EN" "http://www.w3.org/Graphics/SVG/1.1/DTD/svg11.dtd">
<svg version="1.1" xmlns="http://www.w3.org/2000/svg" xmlns:xlink="http://www.w3.org/1999/xlink" x="0px" y="0px" width="24px"
	 height="72px" viewBox="0 0 24 72" enable-background="new 0 0 24 72" xml:space="preserve">
<g id="Layer_1" display="none">
	
		<image display="inline" overflow="visible" width="24" height="72" xlink:href="badx.png"  transform="matrix(0.9999 0 0 0.9999 0 0.0078)">
	</image>
</g>
<g id="Layer_2">
	<rect x="5.138" fill="#C62128" width="12.863" height="12.863"/>
	<g>
		<path fill="#FFFFFF" d="M13.381,11.369l-0.966-1.788c-0.395-0.688-0.648-1.201-0.948-1.773h-0.032
			c-0.221,0.572-0.49,1.085-0.822,1.773l-0.886,1.788H6.975l3.084-4.996L7.085,1.494h2.768l0.934,1.803
			c0.317,0.601,0.554,1.083,0.807,1.64h0.032c0.252-0.63,0.458-1.069,0.728-1.64l0.901-1.803h2.752l-3.005,4.82l3.164,5.055H13.381z
			"/>
	</g>
	<rect x="5.138" y="48.114" fill="#C62128" width="12.863" height="12.863"/>
	<g>
		<path fill="#FFFFFF" d="M13.381,59.482l-0.966-1.787c-0.395-0.688-0.648-1.201-0.948-1.773h-0.032
			c-0.221,0.572-0.49,1.086-0.822,1.773l-0.886,1.787H6.975l3.084-4.995l-2.974-4.879h2.768l0.934,1.803
			c0.317,0.601,0.554,1.083,0.807,1.64h0.032c0.252-0.629,0.458-1.068,0.728-1.64l0.901-1.803h2.752l-3.005,4.819l3.164,5.055
			H13.381z"/>
	</g>
</g>
</svg>
