<?xml version="1.0" encoding="utf-8"?>
<!-- Generator: Adobe Illustrator 16.0.0, SVG Export Plug-In . SVG Version: 6.00 Build 0)  -->
<!DOCTYPE svg PUBLIC "-//W3C//DTD SVG 1.1//EN" "http://www.w3.org/Graphics/SVG/1.1/DTD/svg11.dtd">
<svg version="1.1" xmlns="http://www.w3.org/2000/svg" xmlns:xlink="http://www.w3.org/1999/xlink" x="0px" y="0px" width="20px"
	 height="20px" viewBox="0 0 20 20" enable-background="new 0 0 20 20" xml:space="preserve">
<g id="Layer_1">
</g>
<g id="Layer_2">
	<g>
		<path fill="#909090" d="M9.792,5.12h0.847v1.087c0.811,0.083,1.512,0.349,2.1,0.797v1.386c-0.616-0.625-1.316-0.991-2.1-1.096
			v4.016c1.832,0.505,2.748,1.469,2.748,2.891c0,0.576-0.137,1.104-0.408,1.582c-0.272,0.479-0.603,0.838-0.991,1.078
			s-0.838,0.426-1.349,0.553v1.229H9.792v-1.07c-0.952-0.045-1.859-0.363-2.723-0.955v-1.436c0.885,0.801,1.793,1.225,2.723,1.27
			v-4.275c-1.815-0.404-2.723-1.37-2.723-2.897c0-0.797,0.245-1.469,0.735-2.017c0.489-0.548,1.152-0.899,1.988-1.054V5.12z
			 M9.792,7.336C8.746,7.607,8.223,8.255,8.223,9.279c0,0.93,0.523,1.544,1.569,1.842V7.336z M10.639,12.375v3.977
			c1.057-0.355,1.586-1.039,1.586-2.053C12.225,13.373,11.696,12.732,10.639,12.375z"/>
	</g>
</g>
</svg>
