<?xml version="1.0" encoding="utf-8"?>
<!-- Generator: Adobe Illustrator 21.0.2, SVG Export Plug-In . SVG Version: 6.00 Build 0)  -->
<svg version="1.1" id="Capa_1" xmlns="http://www.w3.org/2000/svg" xmlns:xlink="http://www.w3.org/1999/xlink" x="0px" y="0px"
	 viewBox="0 0 18 18" style="enable-background:new 0 0 18 18;" xml:space="preserve">
<style type="text/css">
	.st0{fill:#010002;}
</style>
<g>
	<g>
		<path class="st0" d="M9,0.7c-4.4,0-8,3.6-8,8s3.6,8,8,8s8-3.6,8-8C17,4.3,13.4,0.7,9,0.7z M9,15.5c-3.7,0-6.7-3-6.7-6.7
			c0-3.7,3-6.7,6.7-6.7s6.7,3,6.7,6.7S12.7,15.5,9,15.5z"/>
		<path class="st0" d="M11.6,6.1L7.8,9.9L6.5,8.5c-0.3-0.3-0.6-0.3-0.9,0c-0.3,0.3-0.3,0.6,0,0.9l1.9,1.9c0.1,0.1,0.3,0.2,0.4,0.2
			c0.2,0,0.4-0.1,0.4-0.2l4.2-4.2c0.3-0.3,0.3-0.6,0-0.9C12.2,5.9,11.8,5.9,11.6,6.1z"/>
	</g>
</g>
</svg>
