<?xml version="1.0" encoding="utf-8"?>
<!-- Generator: Adobe Illustrator 16.0.0, SVG Export Plug-In . SVG Version: 6.00 Build 0)  -->
<!DOCTYPE svg PUBLIC "-//W3C//DTD SVG 1.1//EN" "http://www.w3.org/Graphics/SVG/1.1/DTD/svg11.dtd">
<svg version="1.1" id="Layer_2" xmlns="http://www.w3.org/2000/svg" xmlns:xlink="http://www.w3.org/1999/xlink" x="0px" y="0px"
	 width="24px" height="72px" viewBox="0 0 24 72" enable-background="new 0 0 24 72" xml:space="preserve">
<g id="Layer_2_1_">
	<rect x="5.063" y="48.042" fill="#C62129" width="12.863" height="12.863"/>
	<g>
		<path fill="#FFFFFF" d="M13.306,59.411l-0.966-1.787c-0.395-0.689-0.648-1.201-0.948-1.773H11.36
			c-0.221,0.572-0.49,1.086-0.822,1.773l-0.886,1.787H6.9l3.084-4.996L7.01,49.536h2.768l0.934,1.803
			c0.317,0.602,0.554,1.084,0.807,1.641h0.032c0.252-0.629,0.458-1.068,0.728-1.641l0.901-1.803h2.752l-3.005,4.818l3.164,5.057
			H13.306z"/>
	</g>
</g>
<rect x="4.985" y="-0.001" fill="#0B6343" width="12.987" height="12.987"/>
<rect x="7.026" y="2.02" fill="#FFFFFF" width="8.966" height="8.967"/>
</svg>
