<?xml version="1.0" encoding="utf-8"?>
<!-- Generator: Adobe Illustrator 21.0.2, SVG Export Plug-In . SVG Version: 6.00 Build 0)  -->
<svg version="1.1" id="Capa_1" xmlns="http://www.w3.org/2000/svg" xmlns:xlink="http://www.w3.org/1999/xlink" x="0px" y="0px"
	 viewBox="0 0 77 77" style="enable-background:new 0 0 77 77;" xml:space="preserve">
<style type="text/css">
	.st0{fill:#FFFFFF;stroke:#FFFFFF;stroke-miterlimit:10;}
	.st1{display:none;fill:none;stroke:#FEDC00;stroke-width:2;stroke-miterlimit:10;}
	.st2{display:none;}
	.st3{display:inline;}
	.st4{fill:#FEDC00;}
	.st5{fill:#333333;}
	.st6{fill:none;stroke:#FEDC00;stroke-width:2;stroke-miterlimit:10;}
	.st7{fill:none;}
</style>
<circle class="st0" cx="38" cy="38" r="36.5"/>
<circle class="st1" cx="38.3" cy="38.2" r="36.7"/>
<g class="st2">
	<g class="st3">
		<path class="st4" d="M36.9,25l-4.4-1.4h-1.4c0,1.6-1.3,3-3,3c-1.6,0-3-1.3-3-3h-1.4L19.4,25v5.9l3.7-1.2v12.9h10.3v-13l3.7,1.2V25
			H36.9z"/>
		<path class="st5" d="M59,19.8H17.8c-1.2,0-2.2,1-2.2,2.2v27.3c0,1.2,1,2.2,2.2,2.2h12.6v3.7h-3.7v1.4h23.6v-1.4h-3.7v-3.7h12.6
			c1.2,0,2.2-1,2.2-2.2V22.1C61.2,20.8,60.2,19.8,59,19.8z M17.8,21.3h41.3c0.4,0,0.8,0.3,0.8,0.8v22.8H17V22.1
			C17,21.6,17.3,21.3,17.8,21.3z M45,55.2H31.8v-3.7H45C45,51.5,45,55.2,45,55.2z M59,50.1H17.8c-0.4,0-0.8-0.3-0.8-0.8v-3h42.7v3
			C59.8,49.7,59.5,50.1,59,50.1z"/>
		<rect x="22.9" y="30.9" class="st5" width="10.3" height="1.4"/>
		<rect x="22.9" y="33.9" class="st5" width="10.3" height="1.4"/>
		<rect x="40.6" y="23.5" class="st5" width="17.7" height="1.4"/>
		<rect x="40.6" y="27.2" class="st5" width="17.7" height="1.4"/>
		<rect x="40.6" y="30.9" class="st5" width="14.8" height="1.4"/>
		<rect x="56.8" y="30.9" class="st5" width="1.4" height="1.4"/>
		<rect x="40.6" y="34.2" class="st5" width="17.7" height="1.4"/>
		<rect x="40.6" y="37.9" class="st5" width="17.7" height="1.4"/>
		<rect x="40.6" y="41.6" class="st5" width="14.8" height="1.4"/>
		<rect x="56.8" y="41.6" class="st5" width="1.4" height="1.4"/>
	</g>
</g>
<circle class="st6" cx="38" cy="38.7" r="36.7"/>
<g>
	<rect x="21" y="26" class="st4" width="23.2" height="30.2"/>
	<g>
		<g>
			<path class="st5" d="M32.5,35.8h-5.3l-0.2,1.2h-3.1v0.7h2.9l-0.1,0.7h-3.1v0.7h3l-0.1,0.7h-3.1v0.7h3.1l-0.1,0.7h-3.3v0.7h3.1
				l-0.7,3.4h2c0.2,0.9,1,1.6,1.9,1.6s1.7-0.7,1.9-1.6H35h0.3H36c0.2,0.9,1,1.6,1.9,1.6c1,0,1.7-0.7,1.9-1.6h1.5l1-5.3h-1.9
				c0-0.6-0.1-1.1-0.5-1.6c-0.5-0.6-1.1-0.9-1.8-0.9h-1.3l0.2-1.2h-3.8 M29.3,45.9c-0.7,0-1.2-0.6-1.2-1.2c0-0.7,0.6-1.2,1.2-1.2
				c0.7,0,1.2,0.6,1.2,1.2S30,45.9,29.3,45.9z M34.7,44.3h-3.5c-0.2-0.9-1-1.6-1.9-1.6s-1.7,0.7-1.9,1.6h-1.2l0.6-2.9H28v-0.7h-1.1
				l0.1-0.7h1.4v-0.7h-1.2l0.1-0.7h1.4v-0.7h-1.3l0.1-0.7h1.5v-0.7h-1.4l0.1-0.7h8.5L34.7,44.3z M37.8,45.9c-0.7,0-1.2-0.6-1.2-1.2
				c0-0.7,0.6-1.2,1.2-1.2S39,44,39,44.7C39,45.4,38.5,45.9,37.8,45.9z M39.7,44.3c-0.2-0.9-1-1.6-1.9-1.6s-1.7,0.7-1.9,1.6h-0.6
				l1.2-6.7H38c0.6,0,1,0.3,1.3,0.7c0.3,0.4,0.5,1,0.3,1.4l-0.1,0.4h1.9l-0.9,4.1L39.7,44.3L39.7,44.3z"/>
		</g>
	</g>
	<g>
		<polygon class="st7" points="21.9,55.4 44,55.4 44,43.6 44,39.5 44,26.3 39.1,26.3 26.8,26.3 21.9,26.3 		"/>
		<path class="st7" d="M26.8,24.9h12.4c0.4,0,0.7-0.3,0.7-0.7v-2.1c0-0.4-0.3-0.7-0.7-0.7h-3.4v-2.1c0-0.4-0.3-0.7-0.7-0.7h-4.2
			c-0.4,0-0.7,0.3-0.7,0.7v2.1h-3.4c-0.4,0-0.7,0.3-0.7,0.7v2.1C26.1,24.6,26.4,24.9,26.8,24.9z"/>
		<path class="st7" d="M46.8,22.9h-5.5v1.4c0,0.3-0.1,0.5-0.1,0.7h4.3v18.6v13.3H20.6V25h4.3c-0.1-0.2-0.1-0.5-0.1-0.7v-1.4h-5.6
			c-0.4,0-0.7,0.3-0.7,0.7v34.6c0,0.4,0.3,0.7,0.7,0.7h27.6c0.4,0,0.7-0.3,0.7-0.7V43.5V23.5C47.5,23.2,47.2,22.9,46.8,22.9z"/>
		<path class="st5" d="M48.9,39.5V23.5c0-1.1-1-2.1-2.1-2.1h-5.6c-0.3-0.8-1-1.4-1.9-1.4h-2.1v-0.7c0-1.1-1-2.1-2.1-2.1h-4.2
			c-1.1,0-2.1,1-2.1,2.1V20h-2c-0.9,0-1.6,0.6-1.9,1.4h-5.7c-1.1,0-2.1,1-2.1,2.1v34.6c0,1.1,1,2.1,2.1,2.1h27.6
			c1.1,0,2.1-1,2.1-2.1V43.6V39.5z M26.1,22.1c0-0.4,0.3-0.7,0.7-0.7h3.4v-2.1c0-0.4,0.3-0.7,0.7-0.7H35c0.4,0,0.7,0.3,0.7,0.7v2.1
			h3.4c0.4,0,0.7,0.3,0.7,0.7v2.1c0,0.4-0.3,0.7-0.7,0.7H26.8c-0.4,0-0.7-0.3-0.7-0.7V22.1z M26.8,26.3h12.4H44v13.2v4.2v11.7H21.9
			V26.3L26.8,26.3L26.8,26.3z M47.5,58.1c0,0.4-0.3,0.7-0.7,0.7H19.2c-0.4,0-0.7-0.3-0.7-0.7V23.5c0-0.4,0.3-0.7,0.7-0.7h5.5v1.4
			c0,0.3,0.1,0.5,0.1,0.7h-4.3v31.8h24.9V43.6V25h-4.3c0.1-0.2,0.1-0.5,0.1-0.7v-1.4h5.5c0.4,0,0.7,0.3,0.7,0.7"/>
	</g>
	<g>
		<g>
			<path d="M55.3,18.7H53c-0.4,0-0.6,0.3-0.6,0.6v3.5h-0.3c-0.4,0-0.6,0.3-0.6,0.6v27.5c0,1.7,0.4,3.4,1,5l1,2.1
				c0,0.1,0.1,0.1,0.1,0.2v1.1c0,0.4,0.3,0.6,0.6,0.6c0.2,0,0.3-0.1,0.4-0.2c0.1-0.1,0.2-0.3,0.2-0.4v-1.1c0,0,0.1-0.1,0.1-0.2
				l1-2.1c0.7-1.5,1-3.2,1-5V26.7c0.5,0.3,0.9,1,0.9,2.1V36c0,0.4,0.3,0.6,0.6,0.6c0.2,0,0.3-0.1,0.4-0.2c0.1-0.1,0.2-0.3,0.2-0.4
				v-7.2c0-0.9-0.2-1.7-0.6-2.3c-0.4-0.6-0.9-1-1.4-1v-2.1c0-0.4-0.3-0.6-0.6-0.6H56v-3.5C55.9,19,55.6,18.7,55.3,18.7z M55.6,50.9
				c0,1.5-0.3,3.1-1,4.5l-0.6,1.2l-0.6-1.2c-0.7-1.4-1-3-1-4.5v-1h3.1L55.6,50.9L55.6,50.9z M55.6,48.8h-3.1V24h3.1V48.8z
				 M54.7,22.9h-1.1v-3h1.1V22.9z"/>
		</g>
	</g>
</g>
</svg>
