<?xml version="1.0" encoding="utf-8"?>
<!-- Generator: Adobe Illustrator 17.0.0, SVG Export Plug-In . SVG Version: 6.00 Build 0)  -->
<!DOCTYPE svg PUBLIC "-//W3C//DTD SVG 1.1//EN" "http://www.w3.org/Graphics/SVG/1.1/DTD/svg11.dtd">
<svg version="1.1" xmlns="http://www.w3.org/2000/svg" xmlns:xlink="http://www.w3.org/1999/xlink" x="0px" y="0px" width="26px"
	 height="72px" viewBox="0 0 26 72" enable-background="new 0 0 26 72" xml:space="preserve">
<g id="Capa_1" display="none">
	
		<image display="inline" overflow="visible" width="26" height="72" xlink:href="../../htmlv2/img/switch.png"  transform="matrix(0.9999 0 0 0.9999 0.0016 0.0045)">
	</image>
</g>
<g id="Capa_2">
	<path fill="#E2E2E1" d="M25.998,7.914c0,4.368-3.541,7.91-7.91,7.91H7.911c-4.368,0-7.91-3.541-7.91-7.91l0,0
		c0-4.368,3.541-7.91,7.91-7.91h10.178C22.457,0.005,25.998,3.546,25.998,7.914L25.998,7.914z"/>
	<linearGradient id="SVGID_1_" gradientUnits="userSpaceOnUse" x1="1.8462" y1="7.9141" x2="24.1538" y2="7.9141">
		<stop  offset="0" style="stop-color:#9F9F9F"/>
		<stop  offset="0.7714" style="stop-color:#FFFFFF"/>
	</linearGradient>
	<path fill="url(#SVGID_1_)" d="M24.154,7.914c0,3.575-3.039,6.473-6.787,6.473H8.633c-3.748,0-6.787-2.898-6.787-6.473l0,0
		c0-3.575,3.039-6.473,6.787-6.473h8.733C21.115,1.441,24.154,4.339,24.154,7.914L24.154,7.914z"/>
	<circle fill="#CDCCCC" cx="7.93" cy="7.932" r="7.928"/>
	<circle fill="#FFFFFF" cx="7.93" cy="7.932" r="6.74"/>
	<path fill="#005B35" d="M25.673,55.882c0,4.368-3.497,7.91-7.811,7.91H7.811C3.497,63.791,0,60.25,0,55.882l0,0
		c0-4.368,3.497-7.91,7.811-7.91h10.051C22.176,47.972,25.673,51.513,25.673,55.882L25.673,55.882z"/>
	<linearGradient id="SVGID_2_" gradientUnits="userSpaceOnUse" x1="24.1521" y1="55.8815" x2="1.8446" y2="55.8815">
		<stop  offset="0.2485" style="stop-color:#015636"/>
		<stop  offset="0.8636" style="stop-color:#008555"/>
	</linearGradient>
	<path fill="url(#SVGID_2_)" d="M24.152,55.882c0,3.575-3.039,6.473-6.787,6.473H8.632c-3.748,0-6.787-2.898-6.787-6.473l0,0
		c0-3.575,3.039-6.473,6.787-6.473h8.733C21.113,49.409,24.152,52.307,24.152,55.882L24.152,55.882z"/>
	<circle fill="#CDCCCC" cx="18.069" cy="55.9" r="7.928"/>
	<circle fill="#FFFFFF" cx="18.069" cy="55.9" r="6.74"/>
</g>
</svg>
