<?xml version="1.0" encoding="utf-8"?>
<!-- Generator: Adobe Illustrator 21.0.2, SVG Export Plug-In . SVG Version: 6.00 Build 0)  -->
<svg version="1.1" id="Capa_1" xmlns="http://www.w3.org/2000/svg" xmlns:xlink="http://www.w3.org/1999/xlink" x="0px" y="0px"
	 viewBox="0 0 30 30" style="enable-background:new 0 0 30 30;" xml:space="preserve">
<style type="text/css">
	.st0{fill:none;stroke:#B4A373;stroke-miterlimit:10;}
	.st1{fill:#B4A373;}
</style>
<circle class="st0" cx="15.1" cy="14.6" r="13.6"/>
<g transform="translate(0,-952.36218)">
	<path class="st1" d="M15,956.4c-2.4,0-4.3,1.9-4.3,4.3s1.9,4.3,4.3,4.3s4.3-1.9,4.3-4.3C19.3,958.3,17.4,956.4,15,956.4z M15,957.6
		c1.7,0,3,1.4,3,3c0,1.7-1.4,3-3,3s-3-1.4-3-3C12,959,13.3,957.6,15,957.6z M15,966.2c-4.6,0-8.4,3.4-8.9,7.9c0,0.3,0.2,0.7,0.5,0.7
		c0,0,0.1,0,0.1,0h16.7c0.3,0,0.6-0.3,0.6-0.6c0,0,0-0.1,0-0.1C23.4,969.6,19.6,966.2,15,966.2z M15,967.4c3.8,0,6.8,2.6,7.6,6.1
		H7.4C8.2,970,11.3,967.4,15,967.4z"/>
</g>
</svg>
