<?xml version="1.0" encoding="utf-8"?>
<!-- Generator: Adobe Illustrator 17.0.0, SVG Export Plug-In . SVG Version: 6.00 Build 0)  -->
<!DOCTYPE svg PUBLIC "-//W3C//DTD SVG 1.1//EN" "http://www.w3.org/Graphics/SVG/1.1/DTD/svg11.dtd">
<svg version="1.1" id="Capa_1" xmlns="http://www.w3.org/2000/svg" xmlns:xlink="http://www.w3.org/1999/xlink" x="0px" y="0px"
	 width="12px" height="12px" viewBox="0 0 12 12" enable-background="new 0 0 12 12" xml:space="preserve">
<path fill="#D0191C" d="M6,0.102C2.748,0.102,0.103,2.748,0.103,6c0,3.252,2.645,5.898,5.897,5.898S11.898,9.252,11.897,6
	C11.897,2.748,9.252,0.102,6,0.102z"/>
<path fill="#FFFFFF" d="M3.15,3.871L5.278,6L3.15,8.129c-0.199,0.199-0.199,0.522,0,0.722c0.2,0.2,0.522,0.2,0.721,0L6,6.721
	L8.129,8.85c0.2,0.2,0.522,0.2,0.721,0c0.199-0.199,0.2-0.522,0-0.722L6.722,6L8.85,3.871c0.199-0.199,0.2-0.522,0-0.722
	c-0.199-0.199-0.523-0.199-0.722,0L6,5.278L3.872,3.15c-0.2-0.2-0.523-0.199-0.722,0C2.95,3.349,2.951,3.672,3.15,3.871z"/>
</svg>
