<?xml version="1.0" encoding="utf-8"?>
<!-- Generator: Adobe Illustrator 16.0.0, SVG Export Plug-In . SVG Version: 6.00 Build 0)  -->
<!DOCTYPE svg PUBLIC "-//W3C//DTD SVG 1.1//EN" "http://www.w3.org/Graphics/SVG/1.1/DTD/svg11.dtd">
<svg version="1.1" id="Layer_1" xmlns="http://www.w3.org/2000/svg" xmlns:xlink="http://www.w3.org/1999/xlink" x="0px" y="0px"
	 width="17px" height="22px" viewBox="0 0 17 22" enable-background="new 0 0 17 22" xml:space="preserve">
<g>
	<path fill="#FFFFFF" d="M16.756,4.593l-0.291-0.291l-3.806-3.805l-0.291-0.29C12.238,0.075,12.056,0,11.869,0H0.928
		C0.481,0,0,0.345,0,1.103v13.598v6.233v0.176c0,0.314,0.317,0.622,0.692,0.718c0.019,0.005,0.037,0.014,0.057,0.017
		c0.06,0.011,0.12,0.018,0.179,0.018h15.106c0.061,0,0.119-0.007,0.179-0.018c0.02-0.004,0.038-0.012,0.056-0.017
		c0.376-0.096,0.693-0.403,0.693-0.718v-0.176v-6.233V5.269C16.963,4.979,16.929,4.766,16.756,4.593z M15.62,4.523h-3.181v-3.18
		L15.62,4.523z M0.928,21.108c-0.027,0-0.051-0.01-0.074-0.018c-0.06-0.028-0.101-0.087-0.101-0.156v-5.479h15.456v5.479
		c0,0.069-0.042,0.128-0.101,0.156c-0.024,0.008-0.048,0.018-0.075,0.018H0.928z M0.754,14.701V1.103c0-0.083,0.012-0.35,0.174-0.35
		h10.779c-0.012,0.048-0.021,0.097-0.021,0.148v4.377h4.377c0.05,0,0.099-0.009,0.146-0.022c0,0.006,0,0.008,0,0.014v9.432H0.754
		L0.754,14.701z"/>
	<polygon fill="#FFFFFF" points="5.928,16.558 5.202,18.103 5.15,18.103 4.479,16.558 3.774,16.558 4.799,18.51 3.836,20.356 
		4.552,20.356 5.202,18.922 5.253,18.922 5.856,20.356 6.573,20.356 5.608,18.51 6.634,16.558 	"/>
	<polygon fill="#FFFFFF" points="8.118,16.558 7.489,16.558 7.489,20.356 9.865,20.356 9.865,19.886 8.118,19.886 	"/>
	<path fill="#FFFFFF" d="M12.229,18.494c-0.119-0.086-0.247-0.158-0.386-0.219c-0.137-0.06-0.265-0.122-0.382-0.186
		c-0.115-0.064-0.214-0.138-0.292-0.222c-0.079-0.085-0.119-0.196-0.119-0.333c0-0.055,0.016-0.112,0.042-0.172
		c0.026-0.062,0.063-0.115,0.113-0.163c0.047-0.049,0.103-0.088,0.165-0.122c0.062-0.032,0.128-0.052,0.196-0.059
		c0.124-0.009,0.226-0.013,0.304-0.004c0.078,0.006,0.143,0.019,0.191,0.036c0.047,0.017,0.085,0.033,0.11,0.052
		c0.025,0.017,0.05,0.03,0.069,0.04c0.004-0.004,0.014-0.021,0.032-0.052c0.017-0.03,0.037-0.07,0.062-0.115
		c0.023-0.046,0.05-0.097,0.076-0.149c0.027-0.054,0.053-0.104,0.073-0.147c-0.102-0.065-0.23-0.112-0.394-0.143
		c-0.16-0.028-0.32-0.044-0.478-0.044c-0.154,0-0.302,0.024-0.44,0.073c-0.139,0.048-0.262,0.118-0.366,0.209
		c-0.105,0.09-0.188,0.201-0.25,0.333c-0.062,0.131-0.093,0.279-0.093,0.448c0,0.186,0.039,0.34,0.117,0.463
		c0.08,0.124,0.18,0.231,0.301,0.323c0.12,0.09,0.249,0.17,0.385,0.236c0.138,0.068,0.267,0.134,0.385,0.2
		c0.119,0.068,0.218,0.143,0.297,0.226c0.079,0.082,0.118,0.183,0.118,0.299c0,0.191-0.055,0.338-0.168,0.437
		c-0.111,0.098-0.271,0.146-0.481,0.146c-0.069,0-0.142-0.007-0.221-0.021c-0.079-0.013-0.158-0.031-0.237-0.054
		c-0.08-0.022-0.155-0.047-0.229-0.071c-0.074-0.026-0.135-0.054-0.184-0.081l-0.108,0.443c0.058,0.053,0.128,0.096,0.208,0.133
		c0.081,0.036,0.166,0.063,0.257,0.085c0.089,0.02,0.178,0.036,0.265,0.044s0.172,0.013,0.256,0.013
		c0.192,0,0.363-0.028,0.515-0.087s0.279-0.137,0.382-0.234c0.103-0.099,0.183-0.212,0.239-0.341
		c0.057-0.128,0.086-0.262,0.086-0.398c0-0.204-0.039-0.369-0.118-0.498C12.446,18.688,12.347,18.581,12.229,18.494z"/>
	<path fill="#FFFFFF" d="M6.785,4.899H2.262v1.507v0.754v0.754v0.754v0.754v0.754v0.754v0.754v1.508h3.769h0.754h7.916v-1.508
		v-0.754v-0.754V9.424V8.669V7.915V6.408H6.785V4.899z M3.016,7.161h3.016v0.754H3.016V7.161z M3.016,8.669h3.016v0.754H3.016V8.669
		z M3.016,10.177h3.016v0.754H3.016V10.177z M6.032,12.438H3.016v-0.754h3.016V12.438z M13.947,12.438H6.785v-0.754h7.162V12.438z
		 M13.947,10.931H6.785v-0.754h7.162V10.931z M13.947,9.424H6.785V8.669h7.162V9.424z M13.947,7.161v0.754H6.785V7.161H13.947z
		 M3.016,6.408V5.654h3.016v0.754H3.016z"/>
</g>
</svg>
