<?xml version="1.0" encoding="utf-8"?>
<!-- Generator: Adobe Illustrator 21.0.2, SVG Export Plug-In . SVG Version: 6.00 Build 0)  -->
<svg version="1.1" id="Capa_1" xmlns="http://www.w3.org/2000/svg" xmlns:xlink="http://www.w3.org/1999/xlink" x="0px" y="0px"
	 viewBox="0 0 17 16" style="enable-background:new 0 0 17 16;" xml:space="preserve">
<style type="text/css">
	.st0{display:none;}
	.st1{display:inline;}
	.st2{fill:#0F6343;}
	.st3{fill:#B4A373;}
</style>
<g class="st0">
	<g class="st1">
		<path class="st2" d="M1.6,15.3h14.3c0.3,0,0.5-0.2,0.5-0.5V2.6c0-0.3-0.2-0.5-0.5-0.5h-2.7V1.6c0-0.3-0.2-0.5-0.5-0.5
			s-0.5,0.2-0.5,0.5v0.5H5.4V1.6c0-0.3-0.2-0.5-0.5-0.5S4.3,1.3,4.3,1.6v0.5H1.6C1.3,2.1,1,2.3,1,2.6v12.1C1,15,1.3,15.3,1.6,15.3z
			 M2.1,3.2h2.2v0.3C4.3,3.8,4.6,4,4.9,4c0.3,0,0.5-0.2,0.5-0.5V3.2h6.6v0.3c0,0.3,0.2,0.5,0.5,0.5s0.5-0.2,0.5-0.5V3.2h2.2v1.4H2.1
			V3.2z M2.1,5.7h13.2v8.6H2.1V5.7z"/>
		<path class="st2" d="M12.6,8.1H4.8c-0.3,0-0.5,0.2-0.5,0.5s0.2,0.5,0.5,0.5h7.8c0.3,0,0.5-0.2,0.5-0.5C13.2,8.4,12.9,8.1,12.6,8.1
			z"/>
		<path class="st2" d="M8.7,10.8H4.8c-0.3,0-0.5,0.2-0.5,0.5s0.2,0.5,0.5,0.5h3.9c0.3,0,0.5-0.2,0.5-0.5C9.2,11,9,10.8,8.7,10.8z"/>
	</g>
</g>
<g id="XMLID_613_">
	<path id="XMLID_622_" class="st3" d="M4.8,12.7c0.4,0.1,0.8,0.2,1.3,0.2c1.5,0,2.4-0.7,2.4-1.7c0-0.7-0.6-1.2-1.3-1.4v0
		C8,9.6,8.3,9.1,8.3,8.5c0-0.8-0.7-1.4-2-1.4c-0.5,0-1,0.1-1.4,0.2C4.7,7.5,4.5,7.7,4.6,8c0,0.1,0.1,0.2,0.3,0.3
		c0.1,0.1,0.3,0.1,0.4,0C5.5,8.2,5.8,8.2,6,8.2c0.6,0,0.9,0.2,0.9,0.6c0,0.5-0.6,0.6-1.1,0.6h0c-0.3,0-0.5,0.2-0.5,0.5
		c0,0.3,0.2,0.5,0.5,0.5h0.1c0.6,0,1.2,0.2,1.2,0.8c0,0.4-0.4,0.7-1.1,0.7c-0.3,0-0.6-0.1-0.8-0.1c-0.1,0-0.3,0-0.4,0
		c-0.1,0.1-0.2,0.2-0.3,0.3C4.4,12.4,4.5,12.6,4.8,12.7z"/>
	<path id="XMLID_621_" class="st3" d="M10.2,8.6c0.1,0.1,0.3,0.1,0.5,0l0.5-0.2h0v3.8c0,0.3,0.3,0.6,0.7,0.6c0.4,0,0.7-0.3,0.7-0.6
		V7.6c0-0.2-0.1-0.3-0.3-0.3h-0.6c-0.1,0-0.2,0-0.4,0.1l-1,0.4C10,7.9,9.9,8.1,9.9,8.3C10,8.5,10.1,8.6,10.2,8.6z"/>
	<path id="XMLID_620_" class="st3" d="M6.1,4c0.4,0,0.7-0.4,0.7-0.9c0-0.5-0.2-0.9-0.7-0.9c-0.4,0-0.7,0.4-0.7,0.9
		C5.4,3.7,5.6,4,6.1,4z"/>
	<path id="XMLID_614_" class="st3" d="M15,0.4H2C1.1,0.4,0.4,1.1,0.4,2V14c0,0.9,0.7,1.6,1.7,1.6H15c0.9,0,1.7-0.7,1.7-1.6V2
		C16.6,1.1,15.9,0.4,15,0.4z M10.4,1.8H12c0.1,0,0.3,0.1,0.3,0.2c0,0.1-0.1,0.2-0.3,0.2h-0.5v1.8c0,0.2-0.1,0.3-0.3,0.3
		c-0.2,0-0.3-0.1-0.3-0.3V2.3h-0.5c-0.1,0-0.3-0.1-0.3-0.2C10.1,1.9,10.3,1.8,10.4,1.8z M9.2,1.8c0.2,0,0.3,0,0.4,0
		c0.1,0,0.1,0.1,0.2,0.1c0,0.1,0,0.1,0,0.2l0,0c0,0.1-0.2,0.2-0.3,0.2c-0.1,0-0.2,0-0.3,0c-0.5,0-0.9,0.3-0.9,0.9
		C8.4,3.7,8.7,4,9.3,4c0.1,0,0.2,0,0.3,0c0.1,0,0.3,0.1,0.3,0.2l0,0c0,0.1-0.1,0.3-0.2,0.3c-0.1,0-0.3,0-0.5,0c-1,0-1.5-0.6-1.5-1.3
		C7.7,2.3,8.4,1.8,9.2,1.8z M6.1,1.8c0.9,0,1.3,0.6,1.3,1.3C7.4,4,6.8,4.5,6,4.5c-0.8,0-1.3-0.6-1.3-1.3C4.7,2.4,5.2,1.8,6.1,1.8z
		 M15,14C15,14.1,15,14.1,15,14l-13,0c0,0,0,0,0,0V6h13V14z"/>
</g>
</svg>
