<?xml version="1.0" encoding="utf-8"?>
<!-- Generator: Adobe Illustrator 17.0.0, SVG Export Plug-In . SVG Version: 6.00 Build 0)  -->
<!DOCTYPE svg PUBLIC "-//W3C//DTD SVG 1.1//EN" "http://www.w3.org/Graphics/SVG/1.1/DTD/svg11.dtd">
<svg version="1.1" id="Capa_1" xmlns="http://www.w3.org/2000/svg" xmlns:xlink="http://www.w3.org/1999/xlink" x="0px" y="0px"
	 width="26px" height="26px" viewBox="0 0 26 26" enable-background="new 0 0 26 26" xml:space="preserve">
<path fill="#0F6343" d="M13,0.194C5.939,0.194,0.194,5.938,0.194,13c0,7.062,5.745,12.807,12.806,12.807S25.807,20.061,25.806,13
	C25.806,5.938,20.061,0.194,13,0.194z"/>
<path fill="#FFFFFF" d="M8.682,9.775L11.907,13l-3.225,3.225c-0.302,0.302-0.301,0.791,0.001,1.093c0.302,0.302,0.79,0.302,1.093,0
	L13,14.093l3.225,3.225c0.302,0.302,0.79,0.302,1.093,0c0.302-0.302,0.302-0.792,0.001-1.093L14.093,13l3.225-3.225
	c0.302-0.302,0.303-0.792,0.001-1.093c-0.302-0.302-0.792-0.302-1.094,0L13,11.906L9.776,8.682c-0.302-0.302-0.792-0.302-1.094,0
	C8.379,8.984,8.38,9.473,8.682,9.775z"/>
</svg>
