<?xml version="1.0" encoding="utf-8"?>
<!-- Generator: Adobe Illustrator 17.0.0, SVG Export Plug-In . SVG Version: 6.00 Build 0)  -->
<!DOCTYPE svg PUBLIC "-//W3C//DTD SVG 1.1//EN" "http://www.w3.org/Graphics/SVG/1.1/DTD/svg11.dtd">
<svg version="1.1" id="Capa_1" xmlns="http://www.w3.org/2000/svg" xmlns:xlink="http://www.w3.org/1999/xlink" x="0px" y="0px"
	 width="48px" height="48px" viewBox="0 0 48 48" enable-background="new 0 0 48 48" xml:space="preserve">
<circle fill="#0F6343" cx="24.081" cy="23.951" r="23.742"/>
<g>
	<g>
		<g id="forward">
			<polygon fill="#FFFFFF" points="33.024,20.574 33.024,17.015 40.142,24.133 33.024,31.251 33.024,27.692 28.461,27.692 
				28.461,20.574 			"/>
		</g>
	</g>
	<g>
		<g id="forward_1_">
			<polygon fill="#FFFFFF" points="19.701,20.574 19.701,27.692 15.138,27.692 15.138,31.251 8.02,24.133 15.138,17.015 
				15.138,20.574 			"/>
		</g>
	</g>
	<g>
		<g id="forward_3_">
			<polygon fill="#FFFFFF" points="27.64,33.076 31.199,33.076 24.081,40.194 16.963,33.076 20.522,33.076 20.522,28.513 
				27.64,28.513 			"/>
		</g>
	</g>
	<g>
		<g id="forward_2_">
			<polygon fill="#FFFFFF" points="27.64,19.388 20.522,19.388 20.522,14.825 16.963,14.825 24.081,7.707 31.199,14.825 
				27.64,14.825 			"/>
		</g>
	</g>
</g>
</svg>
