<?xml version="1.0" encoding="utf-8"?>
<!-- Generator: Adobe Illustrator 21.0.2, SVG Export Plug-In . SVG Version: 6.00 Build 0)  -->
<svg version="1.1" id="Capa_1" xmlns="http://www.w3.org/2000/svg" xmlns:xlink="http://www.w3.org/1999/xlink" x="0px" y="0px"
	 viewBox="0 0 17 17" style="enable-background:new 0 0 17 17;" xml:space="preserve">
<style type="text/css">
	.st0{fill:#B4A373;}
</style>
<g>
	<g>
		<path class="st0" d="M13.6,2.1H11c-0.1-1.1-1.1-2-2.3-2c-1.2,0-2.1,0.9-2.3,2H3.9C2.8,2.1,1.9,3,1.9,4v0.1c0,0.8,0.5,1.5,1.2,1.8
			V15c0,1.1,0.9,1.9,1.9,1.9h7.3c1.1,0,1.9-0.9,1.9-1.9V5.9c0.7-0.3,1.2-1,1.2-1.8V4C15.5,3,14.7,2.1,13.6,2.1z M8.7,1
			c0.7,0,1.2,0.5,1.3,1.1H7.4C7.5,1.5,8.1,1,8.7,1z M13.4,15c0,0.6-0.5,1-1,1H5.1c-0.6,0-1-0.5-1-1V6h9.4L13.4,15L13.4,15z
			 M14.6,4.1c0,0.6-0.5,1-1,1H3.9c-0.6,0-1-0.5-1-1V4c0-0.6,0.5-1,1-1h9.8C14.2,3,14.6,3.5,14.6,4.1L14.6,4.1L14.6,4.1z"/>
		<path class="st0" d="M6.3,14.8c0.3,0,0.5-0.2,0.5-0.5V9.2c0-0.3-0.2-0.5-0.5-0.5S5.8,9,5.8,9.2v5.1C5.8,14.6,6.1,14.8,6.3,14.8z"
			/>
		<path class="st0" d="M8.7,14.8c0.3,0,0.5-0.2,0.5-0.5V9.2C9.2,9,9,8.8,8.7,8.8S8.3,9,8.3,9.2v5.1C8.3,14.6,8.5,14.8,8.7,14.8z"/>
		<path class="st0" d="M11.2,14.8c0.3,0,0.5-0.2,0.5-0.5V9.2c0-0.3-0.2-0.5-0.5-0.5S10.7,9,10.7,9.2v5.1
			C10.7,14.6,10.9,14.8,11.2,14.8z"/>
	</g>
</g>
</svg>
