<?xml version="1.0" encoding="utf-8"?>
<!-- Generator: Adobe Illustrator 17.0.0, SVG Export Plug-In . SVG Version: 6.00 Build 0)  -->
<!DOCTYPE svg PUBLIC "-//W3C//DTD SVG 1.1//EN" "http://www.w3.org/Graphics/SVG/1.1/DTD/svg11.dtd">
<svg version="1.1" id="Capa_1" xmlns="http://www.w3.org/2000/svg" xmlns:xlink="http://www.w3.org/1999/xlink" x="0px" y="0px"
	 width="17px" height="22px" viewBox="0 0 17 22" enable-background="new 0 0 17 22" xml:space="preserve">
<g>
	<path fill="#FFFFFF" d="M16.673,4.635l-0.288-0.288l-3.77-3.77l-0.288-0.288c-0.13-0.13-0.311-0.205-0.496-0.205H0.991
		c-0.443,0-0.92,0.342-0.92,1.093V14.65v6.176v0.173c0,0.313,0.314,0.617,0.686,0.713c0.019,0.005,0.037,0.012,0.056,0.016
		c0.058,0.012,0.118,0.018,0.177,0.018h14.967c0.06,0,0.119-0.006,0.177-0.018c0.019-0.004,0.037-0.011,0.056-0.016
		c0.372-0.096,0.686-0.401,0.686-0.713v-0.173V14.65V5.304C16.879,5.018,16.844,4.806,16.673,4.635z M15.547,4.565h-3.15v-3.15
		L15.547,4.565z M0.991,20.999c-0.027,0-0.05-0.01-0.074-0.018c-0.058-0.028-0.099-0.086-0.099-0.155v-5.429h15.313v5.429
		c0,0.069-0.041,0.127-0.099,0.155c-0.024,0.009-0.047,0.018-0.074,0.018H0.991z M0.819,14.65V1.176
		c0-0.081,0.012-0.346,0.173-0.346h10.68c-0.012,0.047-0.022,0.096-0.022,0.146v4.336h4.336c0.05,0,0.099-0.009,0.146-0.022
		c0,0.006,0,0.008,0,0.013v9.346H0.819z"/>
	<polygon fill="#FFFFFF" points="5.945,16.489 5.225,18.02 5.174,18.02 4.51,16.489 3.811,16.489 4.827,18.424 3.872,20.252 
		4.582,20.252 5.225,18.832 5.277,18.832 5.874,20.252 6.584,20.252 5.629,18.424 6.645,16.489 	"/>
	<polygon fill="#FFFFFF" points="8.115,16.489 7.492,16.489 7.492,20.252 9.847,20.252 9.847,19.787 8.115,19.787 	"/>
	<path fill="#FFFFFF" d="M12.188,18.408c-0.117-0.085-0.244-0.158-0.381-0.217c-0.136-0.059-0.262-0.121-0.378-0.184
		c-0.116-0.063-0.213-0.136-0.291-0.22c-0.078-0.084-0.117-0.193-0.117-0.329c0-0.055,0.013-0.112,0.041-0.171
		c0.027-0.059,0.065-0.113,0.112-0.161c0.047-0.048,0.102-0.087,0.164-0.12c0.062-0.032,0.126-0.052,0.194-0.059
		c0.123-0.01,0.223-0.012,0.301-0.005c0.078,0.007,0.141,0.019,0.189,0.036c0.047,0.017,0.084,0.034,0.11,0.051
		c0.025,0.017,0.049,0.031,0.069,0.041c0.003-0.003,0.013-0.021,0.031-0.051c0.017-0.031,0.037-0.069,0.061-0.115
		c0.024-0.046,0.049-0.095,0.077-0.148c0.027-0.053,0.051-0.101,0.071-0.146c-0.099-0.065-0.228-0.112-0.388-0.14
		c-0.16-0.029-0.319-0.043-0.475-0.043c-0.153,0-0.299,0.024-0.437,0.071c-0.138,0.048-0.259,0.117-0.363,0.207
		c-0.104,0.09-0.186,0.2-0.248,0.329c-0.061,0.13-0.092,0.278-0.092,0.444c0,0.184,0.039,0.337,0.117,0.459
		c0.078,0.123,0.177,0.229,0.296,0.319c0.119,0.09,0.247,0.168,0.383,0.235c0.136,0.066,0.263,0.133,0.381,0.199
		s0.215,0.14,0.294,0.222c0.078,0.082,0.117,0.18,0.117,0.296c0,0.191-0.055,0.335-0.166,0.431c-0.111,0.097-0.27,0.146-0.477,0.146
		c-0.068,0-0.141-0.007-0.22-0.021c-0.078-0.013-0.156-0.031-0.235-0.054c-0.078-0.022-0.154-0.046-0.227-0.071
		c-0.073-0.025-0.134-0.052-0.181-0.079l-0.107,0.439c0.058,0.051,0.127,0.094,0.207,0.13c0.08,0.036,0.164,0.064,0.253,0.084
		c0.089,0.021,0.176,0.035,0.263,0.043c0.087,0.008,0.171,0.013,0.253,0.013c0.19,0,0.361-0.029,0.511-0.087
		c0.15-0.058,0.276-0.135,0.378-0.232s0.181-0.21,0.238-0.337c0.056-0.127,0.084-0.26,0.084-0.396c0-0.201-0.039-0.365-0.117-0.493
		C12.403,18.6,12.305,18.494,12.188,18.408z"/>
	<path fill="#FFFFFF" d="M6.794,4.939H2.312v1.494V7.18v0.747v0.747v0.747v0.747v0.747v0.747v1.494h3.735h0.747h7.843v-1.494v-0.747
		v-0.747V9.421V8.674V7.927V6.433H6.794V4.939z M3.059,7.18h2.988v0.747H3.059V7.18z M3.059,8.674h2.988v0.747H3.059V8.674z
		 M3.059,10.168h2.988v0.747H3.059V10.168z M6.047,12.409H3.059v-0.747h2.988V12.409z M13.891,12.409H6.794v-0.747h7.096V12.409z
		 M13.891,10.915H6.794v-0.747h7.096V10.915z M13.891,9.421H6.794V8.674h7.096V9.421z M13.891,7.18v0.747H6.794V7.18H13.891z
		 M3.059,6.433V5.686h2.988v0.747H3.059z"/>
</g>
</svg>
