<?xml version="1.0" encoding="utf-8"?>
<!-- Generator: Adobe Illustrator 16.0.0, SVG Export Plug-In . SVG Version: 6.00 Build 0)  -->
<!DOCTYPE svg PUBLIC "-//W3C//DTD SVG 1.1//EN" "http://www.w3.org/Graphics/SVG/1.1/DTD/svg11.dtd">
<svg version="1.1" id="Layer_1" xmlns="http://www.w3.org/2000/svg" xmlns:xlink="http://www.w3.org/1999/xlink" x="0px" y="0px"
	 width="28px" height="28px" viewBox="0 0 28 28" enable-background="new 0 0 28 28" xml:space="preserve">
<path fill="#FFFFFF" d="M14.002,5c-4.972,0-9.001,4.03-9.001,9c0,4.972,4.029,9.001,9.001,9.001C18.972,23.001,23,18.972,23,14
	C23,9.031,18.972,5,14.002,5 M14.002,9.5c0.621,0,1.125,0.504,1.125,1.125c0,0.623-0.504,1.125-1.125,1.125
	c-0.622,0-1.126-0.502-1.126-1.125C12.876,10.004,13.38,9.5,14.002,9.5 M15.688,18.501h-3.375c-0.311,0-0.562-0.252-0.562-0.562
	s0.252-0.562,0.562-0.562h0.562V14h-0.562c-0.311,0-0.562-0.252-0.562-0.562c0-0.312,0.252-0.563,0.562-0.563h2.25
	c0.312,0,0.563,0.252,0.563,0.563v3.938h0.562c0.312,0,0.562,0.252,0.562,0.562S16,18.501,15.688,18.501"/>
<g id="Layer_1_1_" display="none">
	<rect display="inline" stroke="#FFFFFF" stroke-miterlimit="10" width="28.773" height="29.254"/>
	
		<image display="inline" overflow="visible" enable-background="new    " width="28" height="28" xlink:href="iaviso.png"  transform="matrix(0.9999 0 0 0.9999 0.0034 0.0039)">
	</image>
</g>
</svg>
