<?xml version="1.0" encoding="utf-8"?>
<!-- Generator: Adobe Illustrator 17.0.0, SVG Export Plug-In . SVG Version: 6.00 Build 0)  -->
<!DOCTYPE svg PUBLIC "-//W3C//DTD SVG 1.1//EN" "http://www.w3.org/Graphics/SVG/1.1/DTD/svg11.dtd">
<svg version="1.1" id="Capa_1" xmlns="http://www.w3.org/2000/svg" xmlns:xlink="http://www.w3.org/1999/xlink" x="0px" y="0px"
	 width="186px" height="37px" viewBox="0 0 186 37" enable-background="new 0 0 186 37" xml:space="preserve">
<g>
	<g>
		<path fill="#B3282D" d="M24.775,20.944c0,3.223-2.613,5.835-5.837,5.835c-3.221,0-5.834-2.612-5.834-5.835
			c0-3.223,2.614-5.836,5.834-5.836C22.163,15.108,24.775,17.721,24.775,20.944"/>
		<g>
			<path fill="#006241" d="M26.504,7.931c-4.543,0.79-8.046,2.23-8.046,2.23C11.37,13.156,6.377,18.363,6.803,22.766
				c0.279,2.875,1.817,4.775,5.571,5.454c-6.751,0.703-10.89-1.356-11.282-5.42C0.62,17.909,7.187,11.939,15.902,9.208
				c0,0,1.655-0.51,3.829-0.852C21.631,8.063,23.871,7.931,26.504,7.931"/>
			<path fill="#006241" d="M11.375,7.931c4.545,0.79,8.047,2.23,8.047,2.23c7.086,2.995,12.076,8.202,11.655,12.605
				c-0.277,2.875-1.818,4.775-5.57,5.454c6.749,0.703,10.892-1.356,11.282-5.42c0.473-4.892-6.096-10.862-14.814-13.592
				c0,0-1.652-0.51-3.828-0.852C16.245,8.063,14.008,7.931,11.375,7.931"/>
		</g>
	</g>
	<g>
		<g>
			<path fill="#77777A" d="M45.129,13.018h6.813c1.583,0,4.33,0.615,4.33,3.517c0,2.066-1.604,3.604-4.022,3.89v0.044
				c1.758,0.264,2.967,1.275,2.967,2.967c0,3.253-2.791,4.791-6.308,4.835l-6.989,0.088L45.129,13.018z M46.58,25.458h1.099
				c2.066,0,3.45-0.571,3.45-2.066c0-1.341-0.967-1.539-2.813-1.539h-0.989L46.58,25.458z M47.921,19.084h1.539
				c1.714,0,2.725-0.681,2.725-1.736c0-1.231-1.011-1.428-2.55-1.428H48.58L47.921,19.084z"/>
			<path fill="#77777A" d="M63.766,26.755l-0.044-0.044v0.044c-0.835,1.319-2.308,1.868-3.846,1.868
				c-2.462,0-3.824-1.099-3.824-3.319c0-2.813,2.813-4.198,6.308-4.198c0.792,0,1.583,0.066,2.132,0.11
				c0.044-0.154,0.044-0.308,0.044-0.462c0-0.813-0.813-1.473-2.11-1.473c-1.428,0-2.396,0.22-3.715,0.901l0.396-2.879
				c1.165-0.395,2.417-0.659,4.198-0.659c2.726,0,4.967,1.077,4.967,3.89c0,1.802-1.011,4.374-1.45,7.824H63.59L63.766,26.755z
				 M61.128,25.985c1.692,0,2.703-1.165,2.989-2.703c-0.33-0.066-0.813-0.066-1.055-0.066c-1.89-0.066-3.275,0.615-3.275,1.627
				C59.788,25.37,60.293,25.985,61.128,25.985z"/>
			<path fill="#77777A" d="M70.512,19.898c0.198-0.989,0.373-1.956,0.483-2.989h3.67l-0.307,1.868h0.044
				c1.143-1.275,2.33-2.132,4.418-2.132c2.308,0,3.56,1.714,3.56,3.956c0,0.769-0.066,1.209-0.307,2.417l-1.055,5.341H76.93
				l1.099-5.363c0.11-0.572,0.263-1.143,0.263-1.736c0-0.681-0.439-1.363-1.539-1.319c-1.67,0-2.659,1.451-2.945,3.143l-1.121,5.275
				h-3.956L70.512,19.898z"/>
			<path fill="#77777A" d="M92.181,28.183c-0.792,0.264-1.846,0.44-3.385,0.44c-3.341,0-5.407-2.352-5.407-5.231
				c0-3.758,2.989-6.747,7.385-6.747c0.967,0,2.44,0.286,3.604,0.769l-0.857,2.747c-0.813-0.374-1.67-0.615-2.549-0.615
				c-2.044,0-3.495,1.319-3.495,3.692c0,1.363,1.055,2.484,2.726,2.484c0.989,0,1.692-0.154,2.549-0.506L92.181,28.183z"/>
			<path fill="#77777A" d="M99.785,28.623c-4.242,0-5.956-2.352-5.956-5.231c0-4.022,2.901-6.747,7.385-6.747
				c3.89,0,5.956,2.242,5.956,5.121C107.17,26.535,104.071,28.623,99.785,28.623z M101.016,19.414c-1.912,0-3.099,2.066-3.099,3.89
				c0,1.539,0.813,2.571,2.154,2.55c1.846,0,3.011-1.539,3.011-4.132C103.082,20.535,102.554,19.414,101.016,19.414z"/>
			<path fill="#77777A" d="M119.981,13.018h5.143l2.505,15.341h-4.132l-0.417-3.275h-5.956l-1.824,3.275h-4.439L119.981,13.018z
				 M122.026,16.183h-0.044l-3.252,6h3.956L122.026,16.183z"/>
			<path fill="#77777A" d="M128.574,25.37l6.241-5.56h-4.901l0.593-2.901h9.715l-0.616,2.989l-6.286,5.56h5.231l-0.593,2.901h-9.956
				L128.574,25.37z"/>
			<path fill="#77777A" d="M140.793,16.908h2.264l0.55-2.462l4.175-1.121l-0.791,3.583h2.725l-0.483,2.769h-2.879l-0.681,3.187
				c-0.176,0.857-0.33,1.428-0.33,1.978c0,0.769,0.506,1.275,1.297,1.275c0.418,0,0.857-0.176,1.275-0.33l-0.44,2.615
				c-0.835,0.132-1.67,0.22-2.461,0.22c-2.022,0-3.627-0.989-3.627-3.385c0-0.571,0.088-1.143,0.352-2.352l0.681-3.209h-2.11
				L140.793,16.908z"/>
			<path fill="#77777A" d="M159.209,27.985c-1.385,0.418-2.858,0.637-4,0.637c-3.824,0-5.89-2.352-5.89-5.231
				c0-2.659,1.758-6.747,6.857-6.747c3.011,0,5.275,1.517,5.275,4.989c0,0.461-0.132,1.472-0.286,2.154h-8.11
				c0.044,1.231,0.659,2.198,3.077,2.198c1.055,0,2.483-0.264,3.582-0.791L159.209,27.985z M158.154,21.546
				c0-1.231-0.483-2.264-1.934-2.264c-1.714,0-2.637,1.165-2.923,2.264H158.154z"/>
			<path fill="#77777A" d="M171.208,28.183c-0.791,0.264-1.846,0.44-3.385,0.44c-3.341,0-5.407-2.352-5.407-5.231
				c0-3.758,2.989-6.747,7.385-6.747c0.967,0,2.44,0.286,3.604,0.769l-0.857,2.747c-0.813-0.374-1.67-0.615-2.549-0.615
				c-2.044,0-3.494,1.319-3.494,3.692c0,1.363,1.055,2.484,2.725,2.484c0.989,0,1.692-0.154,2.549-0.506L171.208,28.183z"/>
			<path fill="#77777A" d="M180.438,26.755l-0.044-0.044v0.044c-0.835,1.319-2.308,1.868-3.846,1.868
				c-2.461,0-3.824-1.099-3.824-3.319c0-2.813,2.813-4.198,6.308-4.198c0.792,0,1.583,0.066,2.132,0.11
				c0.044-0.154,0.044-0.308,0.044-0.462c0-0.813-0.813-1.473-2.11-1.473c-1.428,0-2.396,0.22-3.715,0.901l0.396-2.879
				c1.165-0.395,2.417-0.659,4.197-0.659c2.725,0,4.967,1.077,4.967,3.89c0,1.802-1.01,4.374-1.45,7.824h-3.231L180.438,26.755z
				 M177.801,25.985c1.692,0,2.703-1.165,2.989-2.703c-0.33-0.066-0.813-0.066-1.055-0.066c-1.89-0.066-3.275,0.615-3.275,1.627
				C176.46,25.37,176.965,25.985,177.801,25.985z"/>
		</g>
	</g>
</g>
</svg>
