<?xml version="1.0" encoding="utf-8"?>
<!-- Generator: Adobe Illustrator 17.0.0, SVG Export Plug-In . SVG Version: 6.00 Build 0)  -->
<!DOCTYPE svg PUBLIC "-//W3C//DTD SVG 1.1//EN" "http://www.w3.org/Graphics/SVG/1.1/DTD/svg11.dtd">
<svg version="1.1" id="Capa_1" xmlns="http://www.w3.org/2000/svg" xmlns:xlink="http://www.w3.org/1999/xlink" x="0px" y="0px"
	 width="27px" height="27px" viewBox="0 0 27 27" enable-background="new 0 0 27 27" xml:space="preserve">
<g>
	<g>
		<path fill="#0F6343" d="M13.461,26.91c-7.396,0-13.413-6.018-13.413-13.414S6.064,0.082,13.461,0.082s13.413,6.017,13.413,13.413
			C26.875,20.892,20.857,26.91,13.461,26.91z M13.461,1.615c-6.552,0-11.881,5.33-11.881,11.881s5.329,11.88,11.881,11.88
			c6.551,0,11.88-5.329,11.88-11.88S20.011,1.615,13.461,1.615z"/>
	</g>
	<g>
		<path fill="#0F6343" d="M18.749,14.262H8.172c-0.423,0-0.767-0.342-0.767-0.766c0-0.423,0.343-0.767,0.767-0.767h10.578
			c0.423,0,0.766,0.344,0.766,0.767C19.515,13.92,19.173,14.262,18.749,14.262z"/>
	</g>
	<g>
		<path fill="#0F6343" d="M13.461,19.551c-0.423,0-0.767-0.343-0.767-0.766V8.207c0-0.423,0.344-0.767,0.767-0.767
			c0.423,0,0.766,0.344,0.766,0.767v10.578C14.227,19.209,13.885,19.551,13.461,19.551z"/>
	</g>
</g>
</svg>
