<?xml version="1.0" encoding="utf-8"?>
<!-- Generator: Adobe Illustrator 17.0.0, SVG Export Plug-In . SVG Version: 6.00 Build 0)  -->
<!DOCTYPE svg PUBLIC "-//W3C//DTD SVG 1.1//EN" "http://www.w3.org/Graphics/SVG/1.1/DTD/svg11.dtd">
<svg version="1.1" id="Capa_2" xmlns="http://www.w3.org/2000/svg" xmlns:xlink="http://www.w3.org/1999/xlink" x="0px" y="0px"
	 width="37px" height="37px" viewBox="0 0 37 37" enable-background="new 0 0 37 37" xml:space="preserve">
<path d="M30.952,9.991c0,1.108-0.898,2.006-2.006,2.006H9.021c-1.108,0-2.006-0.898-2.006-2.006l0,0
	c0-1.108,0.898-2.006,2.006-2.006h19.925C30.054,7.985,30.952,8.883,30.952,9.991L30.952,9.991z"/>
<path d="M30.952,17.981c0,1.108-0.898,2.006-2.006,2.006H9.021c-1.108,0-2.006-0.898-2.006-2.006l0,0
	c0-1.108,0.898-2.006,2.006-2.006h19.925C30.054,15.975,30.952,16.874,30.952,17.981L30.952,17.981z"/>
<path d="M30.952,25.972c0,1.108-0.898,2.006-2.006,2.006H9.021c-1.108,0-2.006-0.898-2.006-2.006l0,0
	c0-1.108,0.898-2.006,2.006-2.006h19.925C30.054,23.966,30.952,24.864,30.952,25.972L30.952,25.972z"/>
</svg>
