<?xml version="1.0" encoding="utf-8"?>
<!-- Generator: Adobe Illustrator 21.0.2, SVG Export Plug-In . SVG Version: 6.00 Build 0)  -->
<svg version="1.1" id="Layer_2" xmlns="http://www.w3.org/2000/svg" xmlns:xlink="http://www.w3.org/1999/xlink" x="0px" y="0px"
	 viewBox="0 0 24 72" style="enable-background:new 0 0 24 72;" xml:space="preserve">
<style type="text/css">
	.st0{fill:#B4A373;}
	.st1{fill:#FFFFFF;}
</style>
<rect x="5" y="0" class="st0" width="13" height="13"/>
<rect x="5" y="48.1" class="st0" width="13" height="13"/>
<rect x="7" y="2" class="st1" width="9" height="9"/>
<path class="st1" d="M15.5,50.5l-5.7,5.7l-2.1-2.1c-0.4-0.4-1-0.4-1.4,0c-0.4,0.4-0.4,1,0,1.4l2.8,2.8c0.2,0.2,0.4,0.3,0.7,0.3
	c0.2,0,0.5-0.1,0.7-0.3l6.4-6.4c0.4-0.4,0.4-1,0-1.4C16.5,50.1,15.9,50.1,15.5,50.5"/>
</svg>
