<?xml version="1.0" encoding="utf-8"?>
<!-- Generator: Adobe Illustrator 17.0.0, SVG Export Plug-In . SVG Version: 6.00 Build 0)  -->
<!DOCTYPE svg PUBLIC "-//W3C//DTD SVG 1.1//EN" "http://www.w3.org/Graphics/SVG/1.1/DTD/svg11.dtd">
<svg version="1.1" id="Capa_1" xmlns="http://www.w3.org/2000/svg" xmlns:xlink="http://www.w3.org/1999/xlink" x="0px" y="0px"
	 width="21px" height="27px" viewBox="0 0 21 27" enable-background="new 0 0 21 27" xml:space="preserve">
<g>
	<path fill="#0F6343" d="M20.669,5.726l-0.355-0.355l-4.652-4.652l-0.355-0.355c-0.161-0.161-0.384-0.253-0.612-0.253H1.318
		c-0.547,0-1.135,0.422-1.135,1.348v16.625v7.621v0.213c0,0.386,0.388,0.762,0.847,0.88c0.023,0.006,0.045,0.015,0.069,0.019
		c0.072,0.014,0.145,0.022,0.219,0.022h18.468c0.074,0,0.147-0.008,0.219-0.022c0.024-0.005,0.046-0.013,0.069-0.019
		c0.459-0.118,0.847-0.495,0.847-0.88v-0.213v-7.621V6.552C20.922,6.198,20.88,5.937,20.669,5.726z M19.279,5.64h-3.887V1.753
		L19.279,5.64z M1.318,25.918c-0.033,0-0.062-0.012-0.091-0.023c-0.072-0.034-0.122-0.106-0.122-0.191v-6.7H20v6.7
		c0,0.085-0.05,0.156-0.122,0.191c-0.029,0.011-0.059,0.023-0.091,0.023H1.318z M1.105,18.083V1.458c0-0.1,0.015-0.427,0.213-0.427
		h13.178C14.482,1.09,14.47,1.15,14.47,1.212v5.35h5.35c0.062,0,0.122-0.012,0.18-0.027c0,0.007,0,0.01,0,0.017v11.532H1.105z"/>
	<path fill="#0F6343" d="M7.346,20.731c-0.153-0.126-0.327-0.221-0.52-0.283c-0.193-0.063-0.389-0.094-0.586-0.094H4.905v4.644
		h0.756V23.32h0.561c0.243,0,0.466-0.035,0.668-0.107c0.201-0.071,0.374-0.172,0.517-0.302s0.254-0.291,0.334-0.482
		c0.08-0.191,0.12-0.404,0.12-0.64c0-0.223-0.047-0.423-0.142-0.602S7.499,20.857,7.346,20.731z M7.059,22.265
		c-0.047,0.128-0.107,0.228-0.182,0.299c-0.076,0.071-0.159,0.123-0.249,0.154c-0.09,0.031-0.182,0.047-0.274,0.047H5.661v-1.84
		h0.567c0.193,0,0.348,0.03,0.466,0.091c0.118,0.061,0.209,0.136,0.274,0.227c0.065,0.09,0.108,0.185,0.129,0.283
		c0.021,0.099,0.031,0.186,0.031,0.261C7.128,21.978,7.105,22.137,7.059,22.265z"/>
	<path fill="#0F6343" d="M11.914,21.033c-0.195-0.206-0.441-0.371-0.737-0.495c-0.296-0.124-0.64-0.186-1.03-0.186H8.748v4.644
		h1.758c0.059,0,0.149-0.007,0.271-0.022c0.122-0.015,0.256-0.048,0.403-0.101c0.147-0.053,0.299-0.131,0.457-0.236
		c0.158-0.105,0.299-0.249,0.425-0.432c0.126-0.183,0.23-0.41,0.312-0.681c0.082-0.271,0.123-0.598,0.123-0.98
		c0-0.277-0.048-0.548-0.145-0.81C12.255,21.473,12.109,21.239,11.914,21.033z M11.363,23.95c-0.227,0.328-0.596,0.491-1.109,0.491
		h-0.75v-3.516h0.441c0.361,0,0.655,0.047,0.882,0.142c0.227,0.094,0.406,0.218,0.539,0.372c0.132,0.153,0.221,0.324,0.268,0.513
		c0.046,0.189,0.069,0.38,0.069,0.573C11.703,23.148,11.59,23.623,11.363,23.95z"/>
	<polygon fill="#0F6343" points="13.593,24.996 14.362,24.996 14.362,22.904 16.303,22.904 16.303,22.388 14.362,22.388 
		14.362,20.926 16.498,20.926 16.498,20.353 13.593,20.353 	"/>
	<path fill="#0F6343" d="M14.898,10.692c-0.424,0-0.943,0.055-1.548,0.165c-0.843-0.895-1.724-2.202-2.345-3.485
		c0.616-2.594,0.308-2.961,0.172-3.135c-0.145-0.184-0.349-0.483-0.581-0.483c-0.097,0-0.363,0.044-0.468,0.079
		c-0.265,0.088-0.408,0.293-0.523,0.56c-0.326,0.762,0.121,2.061,0.581,3.061c-0.393,1.564-1.053,3.435-1.746,4.954
		c-1.747,0.8-2.674,1.586-2.758,2.336c-0.03,0.273,0.034,0.673,0.514,1.033c0.131,0.098,0.285,0.15,0.446,0.15l0,0
		c0.403,0,0.811-0.309,1.282-0.971c0.344-0.483,0.713-1.142,1.098-1.959c1.234-0.54,2.761-1.027,4.068-1.301
		c0.728,0.699,1.38,1.053,1.941,1.053c0.413,0,0.767-0.19,1.023-0.549c0.267-0.374,0.328-0.708,0.18-0.995
		C16.057,10.86,15.619,10.692,14.898,10.692z M6.652,15.15c-0.216-0.165-0.203-0.277-0.199-0.319
		c0.029-0.256,0.43-0.711,1.415-1.265C7.122,14.945,6.721,15.128,6.652,15.15z M10.431,4.586c0.02-0.006,0.482,0.507,0.044,1.482
		C9.818,5.395,10.386,4.601,10.431,4.586z M9.478,11.971c0.468-1.115,0.903-2.346,1.232-3.486c0.518,0.93,1.139,1.832,1.761,2.555
		C11.489,11.271,10.442,11.597,9.478,11.971z M15.424,11.751c-0.142,0.199-0.45,0.203-0.558,0.203c-0.246,0-0.337-0.146-0.713-0.435
		c0.31-0.04,0.602-0.05,0.835-0.05c0.41,0,0.485,0.06,0.542,0.091C15.519,11.593,15.493,11.654,15.424,11.751z"/>
</g>
</svg>
