<?xml version="1.0" encoding="utf-8"?>
<!-- Generator: Adobe Illustrator 16.0.0, SVG Export Plug-In . SVG Version: 6.00 Build 0)  -->
<!DOCTYPE svg PUBLIC "-//W3C//DTD SVG 1.1//EN" "http://www.w3.org/Graphics/SVG/1.1/DTD/svg11.dtd">
<svg version="1.1" id="Layer_2" xmlns="http://www.w3.org/2000/svg" xmlns:xlink="http://www.w3.org/1999/xlink" x="0px" y="0px"
	 width="37px" height="37px" viewBox="0 0 37 37" enable-background="new 0 0 37 37" xml:space="preserve">
<circle fill="#0B6343" cx="18.483" cy="18.483" r="18.461"/>
<circle fill="#FFFFFF" cx="18.482" cy="18.482" r="16.92"/>
<g>
	<path fill="#0B6343" d="M21.429,13.904c0,0.248-0.078,0.448-0.234,0.602c-0.156,0.154-0.416,0.231-0.781,0.231h-2.786l-0.364,2.114
		c0.457-0.093,0.875-0.14,1.253-0.14c0.532,0,1.001,0.08,1.403,0.238c0.404,0.159,0.744,0.378,1.02,0.658
		c0.275,0.28,0.482,0.608,0.623,0.983c0.141,0.376,0.209,0.781,0.209,1.214c0,0.537-0.094,1.027-0.283,1.471
		c-0.188,0.443-0.451,0.822-0.787,1.137c-0.336,0.315-0.734,0.559-1.193,0.732c-0.46,0.172-0.961,0.258-1.502,0.258
		c-0.317,0-0.618-0.032-0.903-0.098c-0.284-0.064-0.552-0.152-0.801-0.262c-0.25-0.109-0.481-0.236-0.693-0.379
		c-0.213-0.142-0.402-0.293-0.57-0.451l0.532-0.734c0.111-0.159,0.261-0.238,0.447-0.238c0.117,0,0.234,0.037,0.354,0.111
		c0.119,0.075,0.258,0.156,0.417,0.246c0.158,0.088,0.343,0.17,0.553,0.244s0.464,0.112,0.763,0.112
		c0.317,0,0.598-0.052,0.841-0.154s0.444-0.246,0.606-0.431c0.16-0.184,0.281-0.403,0.363-0.658c0.082-0.254,0.123-0.53,0.123-0.829
		c0-0.55-0.16-0.981-0.48-1.292c-0.32-0.31-0.79-0.465-1.411-0.465c-0.489,0-0.982,0.089-1.477,0.266l-1.078-0.308l0.84-4.914h4.999
		V13.904z"/>
</g>
<g display="none">
	<path display="inline" fill="#0B6343" d="M18.558,13.169c0.467,0,0.893,0.069,1.281,0.207c0.387,0.138,0.719,0.333,0.994,0.584
		s0.488,0.555,0.643,0.91c0.154,0.355,0.232,0.749,0.232,1.183c0,0.374-0.055,0.719-0.166,1.036
		c-0.109,0.317-0.256,0.621-0.439,0.91c-0.186,0.289-0.4,0.569-0.648,0.84s-0.506,0.546-0.777,0.826l-2.281,2.331
		c0.225-0.065,0.443-0.115,0.658-0.15s0.42-0.053,0.616-0.053h2.597c0.186,0,0.334,0.053,0.443,0.157
		c0.111,0.104,0.166,0.244,0.166,0.417v1.035h-6.944v-0.574c0-0.115,0.024-0.237,0.073-0.363c0.05-0.126,0.128-0.242,0.235-0.35
		l3.072-3.08c0.257-0.262,0.486-0.511,0.688-0.75c0.203-0.238,0.375-0.474,0.512-0.707c0.137-0.233,0.242-0.47,0.314-0.71
		c0.072-0.24,0.109-0.493,0.109-0.759c0-0.243-0.035-0.456-0.105-0.641c-0.07-0.184-0.17-0.339-0.301-0.465
		s-0.285-0.221-0.465-0.284s-0.382-0.094-0.605-0.094c-0.416,0-0.758,0.105-1.025,0.315c-0.269,0.21-0.456,0.492-0.563,0.847
		c-0.052,0.178-0.129,0.305-0.231,0.382c-0.103,0.077-0.233,0.115-0.392,0.115c-0.07,0-0.147-0.007-0.231-0.021l-0.91-0.161
		c0.07-0.485,0.206-0.911,0.406-1.278c0.2-0.366,0.451-0.672,0.753-0.917c0.301-0.245,0.646-0.429,1.035-0.553
		S18.109,13.169,18.558,13.169z"/>
</g>
<g display="none">
	<path display="inline" fill="#0B6343" d="M18.949,16.97c0.383,0,0.754,0.063,1.117,0.189c0.361,0.126,0.68,0.316,0.955,0.57
		s0.496,0.57,0.664,0.949s0.252,0.819,0.252,1.323c0,0.472-0.086,0.913-0.258,1.327c-0.174,0.412-0.416,0.773-0.729,1.081
		s-0.689,0.551-1.131,0.728c-0.441,0.178-0.928,0.266-1.459,0.266c-0.541,0-1.027-0.086-1.455-0.258
		c-0.43-0.174-0.797-0.414-1.1-0.725c-0.305-0.311-0.535-0.684-0.697-1.121c-0.16-0.436-0.24-0.92-0.24-1.451
		c0-0.477,0.096-0.965,0.289-1.467c0.193-0.501,0.494-1.023,0.9-1.564l2.414-3.241c0.084-0.112,0.207-0.208,0.367-0.287
		c0.162-0.08,0.348-0.119,0.557-0.119h1.541l-3.004,3.675c-0.064,0.079-0.127,0.154-0.186,0.224c-0.059,0.07-0.115,0.143-0.17,0.217
		c0.195-0.098,0.406-0.175,0.633-0.231C18.438,16.998,18.684,16.97,18.949,16.97z M16.527,20.113c0,0.279,0.039,0.535,0.115,0.766
		c0.078,0.231,0.191,0.429,0.344,0.592c0.15,0.164,0.34,0.291,0.562,0.382c0.225,0.091,0.484,0.137,0.777,0.137
		c0.275,0,0.529-0.047,0.76-0.14c0.23-0.094,0.43-0.225,0.596-0.393c0.164-0.168,0.295-0.365,0.387-0.592
		c0.094-0.227,0.141-0.473,0.141-0.738c0-0.289-0.045-0.549-0.133-0.78s-0.215-0.427-0.377-0.588
		c-0.164-0.161-0.359-0.283-0.59-0.367c-0.229-0.084-0.48-0.126-0.756-0.126s-0.523,0.046-0.748,0.14
		c-0.225,0.094-0.416,0.223-0.578,0.389c-0.16,0.166-0.285,0.362-0.371,0.587C16.57,19.607,16.527,19.852,16.527,20.113z"/>
</g>
<g display="none">
	<path display="inline" fill="#0B6343" d="M18.65,13.113c0.467,0,0.887,0.066,1.264,0.199c0.375,0.133,0.695,0.317,0.961,0.553
		c0.268,0.236,0.471,0.513,0.613,0.83s0.213,0.66,0.213,1.028c0,0.322-0.035,0.605-0.107,0.851s-0.178,0.459-0.314,0.641
		c-0.139,0.182-0.307,0.336-0.506,0.462c-0.197,0.126-0.422,0.231-0.674,0.315c0.605,0.191,1.059,0.482,1.357,0.875
		c0.299,0.392,0.447,0.884,0.447,1.477c0,0.504-0.094,0.95-0.279,1.337c-0.188,0.388-0.439,0.713-0.756,0.977
		c-0.318,0.264-0.686,0.464-1.104,0.599c-0.416,0.136-0.859,0.203-1.326,0.203c-0.508,0-0.951-0.059-1.33-0.175
		c-0.377-0.117-0.707-0.29-0.986-0.519s-0.518-0.508-0.715-0.84c-0.195-0.331-0.363-0.714-0.504-1.147l0.764-0.315
		c0.131-0.056,0.264-0.084,0.398-0.084c0.121,0,0.23,0.025,0.326,0.077s0.168,0.126,0.221,0.224
		c0.084,0.164,0.176,0.324,0.275,0.483c0.102,0.158,0.221,0.3,0.361,0.423c0.141,0.124,0.305,0.225,0.494,0.302
		c0.188,0.077,0.414,0.115,0.674,0.115c0.295,0,0.551-0.048,0.771-0.144c0.219-0.096,0.402-0.221,0.549-0.374
		c0.146-0.154,0.256-0.326,0.33-0.515c0.072-0.189,0.107-0.379,0.107-0.57c0-0.243-0.025-0.464-0.076-0.662
		c-0.053-0.198-0.16-0.367-0.322-0.508c-0.164-0.14-0.398-0.249-0.703-0.328c-0.307-0.08-0.717-0.119-1.229-0.119v-1.239
		c0.424,0,0.775-0.037,1.057-0.112c0.279-0.074,0.502-0.178,0.668-0.312c0.166-0.133,0.281-0.293,0.346-0.479
		c0.066-0.187,0.1-0.392,0.1-0.615c0-0.481-0.131-0.844-0.393-1.089s-0.619-0.367-1.07-0.367c-0.412,0-0.752,0.108-1.023,0.325
		c-0.27,0.217-0.459,0.495-0.566,0.835c-0.057,0.177-0.133,0.305-0.23,0.381c-0.098,0.077-0.227,0.115-0.385,0.115
		c-0.076,0-0.154-0.007-0.238-0.021l-0.91-0.158c0.07-0.485,0.205-0.911,0.406-1.278c0.199-0.366,0.451-0.672,0.752-0.917
		s0.646-0.43,1.035-0.553C17.783,13.175,18.201,13.113,18.65,13.113z"/>
</g>
<g display="none">
	<path display="inline" fill="#0B6343" d="M20.982,19.535h1.275v1.001c0,0.094-0.031,0.174-0.092,0.242
		c-0.061,0.067-0.148,0.101-0.266,0.101h-0.918v2.472h-1.512v-2.472h-4.27c-0.117,0-0.219-0.036-0.309-0.108
		c-0.088-0.072-0.145-0.162-0.168-0.27l-0.174-0.875l4.795-6.404h1.637V19.535z M19.471,16.225c0-0.149,0.006-0.311,0.014-0.483
		c0.01-0.173,0.027-0.353,0.049-0.539l-3.143,4.333h3.08V16.225z"/>
</g>
<g display="none">
	<path display="inline" fill="#0B6343" d="M15.967,22.059h2.051v-5.9c0-0.229,0.008-0.469,0.021-0.721l-1.455,1.218
		c-0.061,0.052-0.123,0.086-0.186,0.105c-0.062,0.019-0.125,0.028-0.186,0.028c-0.094,0-0.18-0.02-0.256-0.06
		s-0.135-0.085-0.172-0.137l-0.545-0.749l3.086-2.625h1.422v8.841h1.82v1.295h-5.602V22.059z"/>
</g>
</svg>
