<?xml version="1.0" encoding="utf-8"?>
<!-- Generator: Adobe Illustrator 17.0.0, SVG Export Plug-In . SVG Version: 6.00 Build 0)  -->
<!DOCTYPE svg PUBLIC "-//W3C//DTD SVG 1.1//EN" "http://www.w3.org/Graphics/SVG/1.1/DTD/svg11.dtd">
<svg version="1.1" id="Capa_1" xmlns="http://www.w3.org/2000/svg" xmlns:xlink="http://www.w3.org/1999/xlink" x="0px" y="0px"
	 width="21px" height="27px" viewBox="0 0 21 27" enable-background="new 0 0 21 27" xml:space="preserve">
<g>
	<path fill="#0F6343" d="M20.605,5.752l-0.627-0.627l-4.38-4.38c0,0,0,0,0,0l-0.355-0.355c-0.164-0.163-0.381-0.253-0.612-0.253
		H1.256c-0.547,0-1.135,0.422-1.135,1.348v16.625v7.621v0.213c0,0.386,0.388,0.761,0.846,0.88c0.024,0.006,0.046,0.015,0.07,0.02
		c0.072,0.014,0.145,0.022,0.219,0.022h18.468c0.074,0,0.147-0.008,0.219-0.022c0.024-0.005,0.047-0.013,0.07-0.02
		c0.459-0.118,0.846-0.494,0.846-0.88V25.73v-7.621V6.577C20.859,6.223,20.816,5.962,20.605,5.752z M15.329,1.778l3.887,3.887
		h-3.887V1.778z M1.256,25.943c-0.033,0-0.062-0.012-0.091-0.023c-0.071-0.034-0.122-0.106-0.122-0.191v-6.7h18.895v6.7
		c0,0.085-0.051,0.157-0.122,0.191c-0.029,0.011-0.059,0.023-0.091,0.023H1.256z M1.042,18.109V1.484c0-0.1,0.015-0.427,0.213-0.427
		h13.178c-0.015,0.058-0.027,0.118-0.027,0.18v5.35h5.35c0.062,0,0.122-0.012,0.18-0.027c0,0.007,0,0.01,0,0.017v11.532H1.042z"/>
	<polygon fill="#0F6343" points="4.129,20.894 5.515,20.894 5.515,25.021 6.277,25.021 6.277,20.894 7.664,20.894 7.664,20.378 
		4.129,20.378 	"/>
	<polygon fill="#0F6343" points="11.085,20.378 10.196,22.268 10.134,22.268 9.314,20.378 8.451,20.378 9.705,22.766 8.527,25.021 
		9.403,25.021 10.196,23.27 10.26,23.27 10.997,25.021 11.873,25.021 10.694,22.766 11.948,20.378 	"/>
	<polygon fill="#0F6343" points="12.729,20.894 14.116,20.894 14.116,25.021 14.878,25.021 14.878,20.894 16.264,20.894 
		16.264,20.378 12.729,20.378 	"/>
	<path fill="#0F6343" d="M3.347,6.587h2.765c0.255,0,0.461-0.206,0.461-0.461c0-0.254-0.206-0.461-0.461-0.461H3.347
		c-0.255,0-0.461,0.206-0.461,0.461C2.886,6.381,3.092,6.587,3.347,6.587z"/>
	<path fill="#0F6343" d="M3.347,8.891h4.148c0.255,0,0.461-0.206,0.461-0.461S7.749,7.97,7.494,7.97H3.347
		c-0.255,0-0.461,0.206-0.461,0.461S3.092,8.891,3.347,8.891z"/>
	<path fill="#0F6343" d="M9.338,8.891c0.12,0,0.24-0.051,0.327-0.134C9.748,8.67,9.799,8.55,9.799,8.431
		c0-0.12-0.051-0.24-0.134-0.327c-0.171-0.171-0.484-0.171-0.65,0C8.928,8.191,8.877,8.306,8.877,8.431s0.05,0.24,0.134,0.327
		C9.098,8.841,9.218,8.891,9.338,8.891z"/>
	<path fill="#0F6343" d="M11.181,8.891h3.687c0.255,0,0.461-0.206,0.461-0.461S15.123,7.97,14.868,7.97h-3.687
		c-0.255,0-0.461,0.206-0.461,0.461S10.926,8.891,11.181,8.891z"/>
	<path fill="#0F6343" d="M3.019,15.016c-0.083,0.088-0.134,0.207-0.134,0.327s0.05,0.24,0.134,0.327
		c0.087,0.083,0.207,0.134,0.327,0.134c0.12,0,0.24-0.051,0.327-0.134c0.083-0.088,0.134-0.207,0.134-0.327s-0.051-0.24-0.134-0.323
		C3.503,14.846,3.19,14.846,3.019,15.016z"/>
	<path fill="#0F6343" d="M8.877,14.883H5.19c-0.255,0-0.461,0.206-0.461,0.461s0.206,0.461,0.461,0.461h3.687
		c0.255,0,0.461-0.206,0.461-0.461S9.132,14.883,8.877,14.883z"/>
	<path fill="#0F6343" d="M17.633,7.97h-0.922c-0.255,0-0.461,0.206-0.461,0.461s0.206,0.461,0.461,0.461h0.922
		c0.255,0,0.461-0.206,0.461-0.461S17.888,7.97,17.633,7.97z"/>
	<path fill="#0F6343" d="M3.347,11.196h10.139c0.255,0,0.461-0.206,0.461-0.461s-0.206-0.461-0.461-0.461H3.347
		c-0.255,0-0.461,0.206-0.461,0.461S3.092,11.196,3.347,11.196z"/>
	<path fill="#0F6343" d="M17.633,10.274h-2.765c-0.255,0-0.461,0.206-0.461,0.461s0.206,0.461,0.461,0.461h2.765
		c0.255,0,0.461-0.206,0.461-0.461S17.888,10.274,17.633,10.274z"/>
	<path fill="#0F6343" d="M3.347,13.5H5.19c0.255,0,0.461-0.206,0.461-0.461s-0.206-0.461-0.461-0.461H3.347
		c-0.255,0-0.461,0.206-0.461,0.461S3.092,13.5,3.347,13.5z"/>
	<path fill="#0F6343" d="M11.642,12.578H7.034c-0.255,0-0.461,0.206-0.461,0.461S6.779,13.5,7.034,13.5h4.609
		c0.255,0,0.461-0.206,0.461-0.461S11.897,12.578,11.642,12.578z"/>
	<path fill="#0F6343" d="M17.633,12.578h-4.148c-0.255,0-0.461,0.206-0.461,0.461s0.206,0.461,0.461,0.461h4.148
		c0.255,0,0.461-0.206,0.461-0.461S17.888,12.578,17.633,12.578z"/>
</g>
</svg>
