<?xml version="1.0" encoding="utf-8"?>
<!-- Generator: Adobe Illustrator 16.0.0, SVG Export Plug-In . SVG Version: 6.00 Build 0)  -->
<!DOCTYPE svg PUBLIC "-//W3C//DTD SVG 1.1//EN" "http://www.w3.org/Graphics/SVG/1.1/DTD/svg11.dtd">
<svg version="1.1" id="Capa_1" xmlns="http://www.w3.org/2000/svg" xmlns:xlink="http://www.w3.org/1999/xlink" x="0px" y="0px"
	 width="21px" height="27px" viewBox="0 0 21 27" enable-background="new 0 0 21 27" xml:space="preserve">
<g>
	<path fill="#FFFFFF" d="M20.619,5.794L20.266,5.44l-4.633-4.632l-0.354-0.353c-0.159-0.16-0.381-0.252-0.608-0.252H1.354
		c-0.544,0-1.13,0.42-1.13,1.343v16.552v7.588v0.213c0,0.384,0.386,0.758,0.843,0.875c0.023,0.006,0.045,0.016,0.069,0.02
		c0.072,0.014,0.146,0.021,0.218,0.021h18.387c0.073,0,0.146-0.008,0.218-0.021c0.023-0.005,0.046-0.014,0.068-0.02
		c0.457-0.117,0.844-0.491,0.844-0.875v-0.213v-7.588V6.616C20.872,6.264,20.83,6.005,20.619,5.794z M19.236,5.709h-3.87v-3.87
		L19.236,5.709z M1.354,25.896c-0.033,0-0.062-0.012-0.091-0.021c-0.072-0.034-0.122-0.105-0.122-0.189v-6.67h18.812v6.67
		c0,0.084-0.051,0.155-0.122,0.189c-0.029,0.011-0.058,0.021-0.091,0.021H1.354z M1.142,18.098V1.545c0-0.1,0.015-0.425,0.212-0.425
		h13.121c-0.015,0.058-0.026,0.118-0.026,0.18v5.327h5.327c0.062,0,0.121-0.011,0.179-0.027c0,0.007,0,0.01,0,0.017v11.48H1.142
		L1.142,18.098z"/>
	<polygon fill="#FFFFFF" points="7.44,20.357 6.556,22.238 6.493,22.238 5.677,20.357 4.818,20.357 6.066,22.734 4.893,24.98 
		5.765,24.98 6.556,23.236 6.618,23.236 7.352,24.98 8.224,24.98 7.051,22.734 8.3,20.357 	"/>
	<polygon fill="#FFFFFF" points="10.106,20.357 9.341,20.357 9.341,24.98 12.232,24.98 12.232,24.409 10.106,24.409 	"/>
	<path fill="#FFFFFF" d="M15.109,22.715c-0.145-0.105-0.301-0.193-0.469-0.267c-0.166-0.073-0.322-0.148-0.464-0.226
		c-0.142-0.078-0.262-0.168-0.356-0.271c-0.096-0.103-0.145-0.238-0.145-0.405c0-0.066,0.018-0.137,0.051-0.21
		c0.032-0.073,0.078-0.139,0.138-0.198c0.058-0.059,0.125-0.106,0.2-0.146c0.076-0.04,0.156-0.064,0.24-0.072
		c0.149-0.012,0.273-0.016,0.369-0.006c0.096,0.009,0.174,0.023,0.232,0.044c0.058,0.021,0.104,0.042,0.135,0.063
		c0.031,0.021,0.061,0.037,0.085,0.049c0.004-0.004,0.017-0.024,0.038-0.062c0.021-0.037,0.046-0.085,0.075-0.141
		c0.028-0.057,0.061-0.117,0.094-0.182c0.033-0.065,0.063-0.125,0.088-0.18c-0.122-0.079-0.28-0.137-0.478-0.173
		c-0.196-0.035-0.391-0.054-0.582-0.054c-0.188,0-0.367,0.029-0.536,0.089c-0.169,0.059-0.318,0.144-0.446,0.254
		s-0.229,0.245-0.304,0.405s-0.113,0.341-0.113,0.546c0,0.226,0.048,0.413,0.144,0.563c0.097,0.15,0.218,0.281,0.365,0.393
		c0.146,0.111,0.303,0.207,0.469,0.289c0.168,0.082,0.324,0.162,0.469,0.244s0.264,0.174,0.361,0.273
		c0.096,0.1,0.144,0.223,0.144,0.364c0,0.233-0.067,0.411-0.204,0.53c-0.136,0.119-0.332,0.179-0.586,0.179
		c-0.084,0-0.173-0.009-0.27-0.025s-0.192-0.038-0.289-0.065c-0.097-0.028-0.189-0.057-0.279-0.088s-0.164-0.064-0.223-0.098
		l-0.133,0.54c0.071,0.063,0.156,0.116,0.254,0.16c0.099,0.044,0.201,0.078,0.312,0.104c0.108,0.024,0.217,0.043,0.323,0.053
		c0.105,0.01,0.209,0.016,0.311,0.016c0.234,0,0.443-0.035,0.627-0.105c0.184-0.071,0.34-0.166,0.465-0.285s0.223-0.258,0.291-0.414
		c0.069-0.156,0.104-0.319,0.104-0.486c0-0.247-0.048-0.449-0.144-0.605C15.374,22.95,15.253,22.82,15.109,22.715z"/>
	<path fill="#FFFFFF" d="M8.483,6.167H2.977v1.835V8.92v0.918v0.918v0.918v0.918v0.918v0.918v1.836h4.588h0.918h9.636v-1.836V13.51
		v-0.918v-0.918v-0.918V9.838V8.003H8.483V6.167z M3.895,8.92h3.671v0.918H3.895V8.92z M3.895,10.756h3.671v0.918H3.895V10.756z
		 M3.895,12.591h3.671v0.918H3.895V12.591z M7.566,15.344H3.895v-0.918h3.671V15.344z M17.201,15.344H8.483v-0.918h8.718V15.344z
		 M17.201,13.509H8.483v-0.918h8.718V13.509z M17.201,11.674H8.483v-0.918h8.718V11.674z M17.201,8.92v0.918H8.483V8.92H17.201z
		 M3.895,8.003V7.085h3.671v0.918H3.895z"/>
</g>
</svg>
