<?xml version="1.0" encoding="utf-8"?>
<!-- Generator: Adobe Illustrator 17.0.0, SVG Export Plug-In . SVG Version: 6.00 Build 0)  -->
<!DOCTYPE svg PUBLIC "-//W3C//DTD SVG 1.1//EN" "http://www.w3.org/Graphics/SVG/1.1/DTD/svg11.dtd">
<svg version="1.1" id="Capa_1" xmlns="http://www.w3.org/2000/svg" xmlns:xlink="http://www.w3.org/1999/xlink" x="0px" y="0px"
	 width="21px" height="27px" viewBox="0 0 21 27" enable-background="new 0 0 21 27" xml:space="preserve">
<g>
	<path fill="#0F6343" d="M20.619,5.794l-0.354-0.354l-4.632-4.632L15.28,0.455c-0.16-0.16-0.382-0.252-0.609-0.252H1.354
		c-0.544,0-1.13,0.42-1.13,1.343v16.552v7.588v0.212c0,0.384,0.386,0.758,0.843,0.876c0.023,0.006,0.045,0.015,0.069,0.019
		c0.072,0.014,0.145,0.022,0.218,0.022h18.387c0.073,0,0.146-0.008,0.218-0.022c0.024-0.005,0.046-0.013,0.069-0.019
		c0.457-0.118,0.843-0.492,0.843-0.876v-0.212v-7.588V6.616C20.872,6.264,20.83,6.005,20.619,5.794z M19.236,5.709h-3.87v-3.87
		L19.236,5.709z M1.354,25.897c-0.033,0-0.062-0.012-0.091-0.022c-0.072-0.034-0.122-0.106-0.122-0.19v-6.67h18.812v6.67
		c0,0.084-0.05,0.156-0.122,0.19c-0.029,0.011-0.058,0.022-0.091,0.022H1.354z M1.142,18.097V1.545c0-0.1,0.015-0.425,0.212-0.425
		h13.12C14.46,1.178,14.448,1.238,14.448,1.3v5.327h5.327c0.062,0,0.121-0.011,0.179-0.027c0,0.007,0,0.01,0,0.017v11.481H1.142z"/>
	<polygon fill="#0F6343" points="7.44,20.357 6.556,22.238 6.493,22.238 5.677,20.357 4.818,20.357 6.066,22.734 4.893,24.98 
		5.765,24.98 6.556,23.236 6.618,23.236 7.352,24.98 8.224,24.98 7.051,22.734 8.3,20.357 	"/>
	<polygon fill="#0F6343" points="10.106,20.357 9.341,20.357 9.341,24.98 12.233,24.98 12.233,24.409 10.106,24.409 	"/>
	<path fill="#0F6343" d="M15.109,22.715c-0.144-0.105-0.3-0.194-0.468-0.267c-0.167-0.073-0.322-0.148-0.464-0.226
		c-0.142-0.078-0.262-0.167-0.357-0.27c-0.096-0.103-0.144-0.238-0.144-0.405c0-0.067,0.017-0.137,0.05-0.21
		c0.033-0.073,0.079-0.139,0.138-0.198c0.058-0.059,0.125-0.107,0.201-0.147c0.076-0.04,0.155-0.064,0.239-0.072
		c0.15-0.012,0.274-0.015,0.37-0.006c0.096,0.009,0.173,0.023,0.232,0.044c0.058,0.021,0.104,0.042,0.135,0.063
		c0.031,0.021,0.06,0.038,0.085,0.05c0.004-0.004,0.017-0.025,0.038-0.063c0.021-0.038,0.046-0.085,0.075-0.141
		c0.029-0.056,0.061-0.117,0.094-0.182c0.033-0.065,0.063-0.124,0.088-0.179c-0.122-0.079-0.28-0.137-0.477-0.173
		c-0.197-0.035-0.391-0.053-0.583-0.053c-0.188,0-0.367,0.029-0.536,0.088c-0.169,0.059-0.318,0.144-0.446,0.254
		c-0.128,0.111-0.229,0.245-0.304,0.405s-0.113,0.341-0.113,0.546c0,0.226,0.048,0.414,0.144,0.564
		c0.096,0.15,0.217,0.281,0.364,0.392c0.146,0.111,0.303,0.207,0.47,0.289c0.167,0.082,0.323,0.163,0.468,0.245
		c0.145,0.082,0.264,0.173,0.361,0.273c0.096,0.1,0.144,0.222,0.144,0.364c0,0.234-0.068,0.411-0.204,0.53
		c-0.136,0.119-0.332,0.179-0.586,0.179c-0.084,0-0.173-0.009-0.27-0.025c-0.096-0.017-0.192-0.039-0.289-0.066
		c-0.096-0.028-0.189-0.056-0.279-0.088c-0.09-0.031-0.164-0.064-0.223-0.097l-0.132,0.54c0.071,0.063,0.156,0.116,0.254,0.16
		c0.098,0.044,0.201,0.078,0.311,0.104c0.109,0.025,0.217,0.043,0.323,0.053s0.21,0.016,0.311,0.016
		c0.234,0,0.443-0.035,0.627-0.106c0.184-0.071,0.339-0.166,0.464-0.285c0.126-0.119,0.223-0.257,0.292-0.414
		c0.069-0.156,0.104-0.319,0.104-0.486c0-0.247-0.048-0.449-0.144-0.605C15.374,22.95,15.253,22.82,15.109,22.715z"/>
	<path fill="#0F6343" d="M8.483,6.167H2.977v1.835V8.92v0.918v0.918v0.918v0.918v0.918v0.918v1.835h4.588h0.918h9.636v-1.835v-0.918
		v-0.918v-0.918v-0.918V9.838V8.003H8.483V6.167z M3.895,8.92h3.671v0.918H3.895V8.92z M3.895,10.756h3.671v0.918H3.895V10.756z
		 M3.895,12.591h3.671v0.918H3.895V12.591z M7.566,15.344H3.895v-0.918h3.671V15.344z M17.201,15.344H8.483v-0.918h8.718V15.344z
		 M17.201,13.509H8.483v-0.918h8.718V13.509z M17.201,11.674H8.483v-0.918h8.718V11.674z M17.201,8.92v0.918H8.483V8.92H17.201z
		 M3.895,8.003V7.085h3.671v0.918H3.895z"/>
</g>
</svg>
