<?xml version="1.0" encoding="utf-8"?>
<!-- Generator: Adobe Illustrator 17.0.0, SVG Export Plug-In . SVG Version: 6.00 Build 0)  -->
<!DOCTYPE svg PUBLIC "-//W3C//DTD SVG 1.1//EN" "http://www.w3.org/Graphics/SVG/1.1/DTD/svg11.dtd">
<svg version="1.1" id="Capa_1" xmlns="http://www.w3.org/2000/svg" xmlns:xlink="http://www.w3.org/1999/xlink" x="0px" y="0px"
	 width="21px" height="27px" viewBox="0 0 21 27" enable-background="new 0 0 21 27" xml:space="preserve">
<g>
	<path fill="#0F6343" d="M20.625,5.746l-0.628-0.628l-4.382-4.383c0,0,0,0,0,0L15.26,0.38c-0.164-0.163-0.381-0.253-0.612-0.253
		H1.267c-0.547,0-1.136,0.422-1.136,1.349v16.633v7.625v0.213c0,0.386,0.388,0.762,0.847,0.88c0.024,0.006,0.046,0.015,0.07,0.02
		c0.072,0.014,0.145,0.022,0.219,0.022h18.477c0.074,0,0.147-0.008,0.219-0.022c0.024-0.005,0.047-0.013,0.07-0.02
		c0.459-0.118,0.847-0.494,0.847-0.88v-0.213v-7.625V6.572C20.879,6.218,20.837,5.957,20.625,5.746z M15.347,1.771l3.889,3.889
		h-3.889V1.771z M1.267,25.947c-0.033,0-0.062-0.012-0.091-0.023c-0.071-0.034-0.122-0.106-0.122-0.191v-6.703h18.904v6.703
		c0,0.085-0.051,0.157-0.122,0.191c-0.029,0.011-0.059,0.023-0.091,0.023H1.267z M1.053,18.109V1.476c0-0.1,0.015-0.427,0.213-0.427
		h13.184c-0.015,0.058-0.027,0.118-0.027,0.18v5.353h5.352c0.062,0,0.122-0.012,0.18-0.027c0,0.007,0,0.01,0,0.017v11.537H1.053z"/>
	<polygon fill="#0F6343" points="6.921,20.379 6.032,22.27 5.969,22.27 5.15,20.379 4.286,20.379 5.54,22.768 4.362,25.025 
		5.238,25.025 6.032,23.273 6.096,23.273 6.833,25.025 7.709,25.025 6.53,22.768 7.785,20.379 	"/>
	<polygon fill="#0F6343" points="10.975,23.556 9.594,20.379 8.825,20.379 8.825,25.025 9.594,25.025 9.594,21.829 10.64,24.414 
		11.308,24.414 12.349,21.829 12.349,25.025 13.118,25.025 13.118,20.379 12.349,20.379 	"/>
	<polygon fill="#0F6343" points="15.053,20.379 14.284,20.379 14.284,25.025 17.19,25.025 17.19,24.452 15.053,24.452 	"/>
	<path fill="#0F6343" d="M7.834,8.1c-0.18-0.18-0.472-0.18-0.652,0l-2.766,2.766c-0.18,0.18-0.18,0.472,0,0.652l2.766,2.766
		c0.09,0.09,0.208,0.135,0.326,0.135c0.118,0,0.236-0.045,0.326-0.135c0.18-0.18,0.18-0.472,0-0.652l-2.44-2.44l2.44-2.44
		C8.015,8.572,8.015,8.281,7.834,8.1z"/>
	<path fill="#0F6343" d="M13.367,8.1c-0.18-0.18-0.472-0.18-0.652,0c-0.18,0.18-0.18,0.472,0,0.652l2.44,2.44l-2.44,2.44
		c-0.18,0.18-0.18,0.472,0,0.652c0.09,0.09,0.208,0.135,0.326,0.135c0.118,0,0.236-0.045,0.326-0.135l2.766-2.766
		c0.18-0.18,0.18-0.472,0-0.652L13.367,8.1z"/>
	<path fill="#0F6343" d="M11.811,6.608c-0.241-0.085-0.503,0.041-0.588,0.281l-2.766,7.838c-0.085,0.24,0.041,0.503,0.281,0.588
		c0.051,0.018,0.103,0.026,0.154,0.026c0.19,0,0.368-0.118,0.435-0.308l2.766-7.838C12.178,6.956,12.052,6.693,11.811,6.608z"/>
</g>
</svg>
