<?xml version="1.0" encoding="utf-8"?>
<!-- Generator: Adobe Illustrator 16.0.0, SVG Export Plug-In . SVG Version: 6.00 Build 0)  -->
<!DOCTYPE svg PUBLIC "-//W3C//DTD SVG 1.1//EN" "http://www.w3.org/Graphics/SVG/1.1/DTD/svg11.dtd">
<svg version="1.1" id="Layer_2" xmlns="http://www.w3.org/2000/svg" xmlns:xlink="http://www.w3.org/1999/xlink" x="0px" y="0px"
	 width="24px" height="72px" viewBox="0 0 24 72" enable-background="new 0 0 24 72" xml:space="preserve">
<rect x="4.985" y="-0.001" fill="#B6DACC" width="12.987" height="12.987"/>
<rect x="4.985" y="48.051" fill="#B6DACC" width="12.987" height="12.988"/>
<rect x="7.026" y="2.02" fill="#FFFFFF" width="8.966" height="8.967"/>
<path fill="#FFFFFF" d="M15.52,50.474l-5.676,5.678l-2.077-2.076c-0.383-0.384-1.003-0.384-1.386,0
	c-0.383,0.382-0.383,1.002,0,1.385l2.771,2.771c0.191,0.189,0.442,0.287,0.693,0.287c0.25,0,0.501-0.097,0.692-0.287l6.371-6.371
	c0.383-0.384,0.383-1.004,0-1.387C16.523,50.091,15.903,50.091,15.52,50.474"/>
</svg>
